<?xml version="1.0" encoding="utf-8"?>
<!-- Generator: Adobe Illustrator 18.0.0, SVG Export Plug-In . SVG Version: 6.00 Build 0)  -->
<!DOCTYPE svg PUBLIC "-//W3C//DTD SVG 1.1//EN" "http://www.w3.org/Graphics/SVG/1.1/DTD/svg11.dtd">
<svg version="1.1" id="Layer_1" xmlns="http://www.w3.org/2000/svg" xmlns:xlink="http://www.w3.org/1999/xlink" x="0px" y="0px"
	 viewBox="13.4 217.6 688.8 284.2" enable-background="new 13.4 217.6 688.8 284.2" xml:space="preserve">
<g>
	<g enable-background="new    ">
		<path d="M21.9,217.6h65.3v17.3H42.4v21.3h38.9V272H42.4v38.4H22.1v-92.8L21.9,217.6L21.9,217.6z"/>
		<path d="M129.9,241.4c21.1,0,34.8,14,34.8,35.6c0,21.3-13.7,35.3-34.8,35.3s-34.8-14-34.8-35.3
			C95.1,255.4,108.8,241.4,129.9,241.4z M129.9,298.4c12.7,0,16.5-10.7,16.5-21.3s-3.8-21.6-16.5-21.6c-12.5,0-16.3,10.9-16.3,21.6
			C113.6,287.4,117.4,298.4,129.9,298.4z"/>
		<path d="M176.6,243.2h17.5v12.5h0.3c3.3-8.4,12.5-14.2,21.3-14.2c1.3,0,2.8,0.3,4.1,0.8v17c-1.8-0.5-4.3-0.8-6.6-0.8
			c-13.5,0-18.3,9.7-18.3,21.6v30.2h-18.6L176.6,243.2L176.6,243.2z"/>
		<path d="M240.2,281.3c0.5,11.7,6.4,17,16.5,17c7.4,0,13.5-4.6,14.5-8.6h16.3c-5.1,15.8-16.3,22.6-31.5,22.6
			c-21.1,0-34.3-14.5-34.3-35.3c0-20.1,14-35.6,34.3-35.6c22.9,0,34.1,19.3,32.8,39.9H240.2z M270.4,269.7
			c-1.8-9.4-5.8-14.2-14.7-14.2c-11.7,0-15,9.1-15.2,14.2H270.4z"/>
		<path d="M345.6,266.9c-1.3-7.6-6.1-11.7-13.7-11.7c-11.9,0-15.8,11.9-15.8,21.9c0,9.7,3.8,21.1,15.2,21.1
			c8.6,0,13.5-5.6,14.7-13.7h17.8c-2.3,17.8-14.7,27.7-32.5,27.7c-20.3,0-34.1-14.2-34.1-34.6c0-20.8,12.5-36.3,34.3-36.3
			c15.8,0,30.5,8.4,31.5,25.4h-17.5v0.2H345.6z"/>
		<path d="M373.6,263.8c1-17.3,16.5-22.6,31.5-22.6c13.5,0,29.5,3,29.5,19.1v35.1c0,6.1,0.8,12.2,2.3,15h-18.8
			c-0.8-2-1.3-4.3-1.3-6.6c-5.8,6.1-14.5,8.4-22.6,8.4c-12.7,0-22.9-6.4-22.9-20.1c0-15.2,11.4-18.8,22.9-20.3
			c11.4-1.8,21.9-1.3,21.9-8.9c0-7.9-5.3-9.1-11.9-9.1c-7.1,0-11.7,2.8-12.2,10.2h-18.4V263.8z M416.3,277.5
			c-3,2.8-9.7,2.8-15.2,3.8c-5.8,1.3-10.9,3-10.9,9.9s5.3,8.6,11.4,8.6c14.5,0,15-11.4,15-15.5v-6.9h-0.3V277.5z"/>
		<path d="M463.6,288.7c0.3,8.1,6.9,11.4,14.2,11.4c5.3,0,12.2-2,12.2-8.6c0-5.6-7.6-7.6-20.8-10.4c-10.7-2.3-21.3-6.1-21.3-18
			c0-17.3,14.7-21.6,29.2-21.6c14.7,0,28.2,4.8,29.7,21.3h-17.5c-0.5-7.1-6.1-9.1-12.7-9.1c-4.1,0-10.2,0.8-10.2,6.4
			c0,6.6,10.4,7.6,20.8,9.9c10.7,2.5,21.3,6.4,21.3,18.8c0,17.8-15.2,23.4-30.8,23.4s-30.8-5.8-31.5-23.6h17.3L463.6,288.7
			L463.6,288.7z"/>
		<path d="M542.4,243.2h13.5v12.5h-13.5V289c0,6.4,1.5,7.9,7.9,7.9c2,0,3.8-0.3,5.8-0.5v14.5c-3,0.5-7.1,0.8-10.9,0.8
			c-11.4,0-21.1-2.5-21.1-16v-39.9h-11.2v-12.5h11.2V223h18.6L542.4,243.2L542.4,243.2z"/>
		<path d="M565.7,290.5H586v20.1h-20.3V290.5z"/>
		<path d="M620.1,232.8h-18.6v-15.2h18.6V232.8z M601.6,243.2h18.6v67.3h-18.6V243.2z"/>
		<path d="M667.4,241.4c21.1,0,34.8,14,34.8,35.6c0,21.3-13.7,35.3-34.8,35.3s-34.8-14-34.8-35.3
			C632.6,255.4,646.3,241.4,667.4,241.4z M667.4,298.4c12.7,0,16.5-10.7,16.5-21.3s-3.8-21.6-16.5-21.6c-12.5,0-16.3,10.9-16.3,21.6
			C651.1,287.4,654.7,298.4,667.4,298.4z"/>
	</g>
	<g enable-background="new    ">
		<path d="M110.6,435.1H90.2l-15.8-63.3h-0.3l-15.5,63.3H38.1l-24.7-93h20.3l14.7,63.3h0.3L65,342.1h19.1l15.8,64h0.3l15.2-64h20.1
			L110.6,435.1z"/>
		<path d="M161.9,357.3h-18.6v-15.2h18.6V357.3z M143.3,367.8h18.6v67.3h-18.6V367.8z"/>
		<path d="M224.4,426.5h-0.3c-4.3,7.4-11.9,10.4-20.3,10.4c-20.3,0-30.2-17.5-30.2-36.1c0-18,9.9-34.8,29.7-34.8
			c7.9,0,15.8,3.3,19.8,9.9h0.5v-33.8h18.6v93h-17.5C224.4,435.1,224.4,426.5,224.4,426.5z M208.4,379.7
			c-12.2,0-16.3,10.4-16.3,21.3c0,10.4,4.8,21.6,16.3,21.6c12.2,0,15.8-10.7,15.8-21.9C224.2,390.1,220.3,379.7,208.4,379.7z"/>
		<path d="M320.7,430.8c0,11.2-3.8,29.7-34.8,29.7c-13.2,0-28.7-6.4-29.7-21.6h18.3c1.8,6.9,7.4,9.1,13.7,9.1
			c10.2,0,15-7.1,14.7-16.8v-8.9h-0.3c-4.1,7.1-12.2,10.4-20.1,10.4c-20.1,0-28.7-15.2-28.7-33.8c0-17.5,9.9-33.3,29-33.3
			c8.9,0,15.5,3,20.1,10.7h0.3v-8.9h17.5L320.7,430.8L320.7,430.8z M303.2,400.5c0-10.9-3.8-20.6-15.8-20.6c-10.4,0-15,9.1-15,19.1
			c0,9.7,3.6,20.1,15,20.1C297.9,419.1,303.2,410.2,303.2,400.5z"/>
		<path d="M350.7,405.9c0.5,11.7,6.4,17,16.5,17c7.4,0,13.5-4.6,14.5-8.6H398c-5.1,15.8-16.3,22.6-31.5,22.6
			c-21.1,0-34.3-14.5-34.3-35.3c0-20.1,14-35.6,34.3-35.6c22.9,0,34.1,19.3,32.8,39.9H350.7z M380.7,394.2
			c-1.8-9.4-5.8-14.2-14.7-14.2c-11.7,0-15,9.1-15.2,14.2H380.7z"/>
		<path d="M433.6,367.8H447v12.5h-13.5v33.3c0,6.4,1.5,7.9,7.9,7.9c2,0,3.8-0.3,5.8-0.5v14.5c-3,0.5-7.1,0.8-10.9,0.8
			c-11.4,0-21.1-2.5-21.1-16v-39.9H404v-12.5h11.2v-20.1h18.6L433.6,367.8L433.6,367.8z"/>
	</g>
	<g enable-background="new    ">
		<path d="M21.3,477.5h4.8v3.6h-4.8v14.7c0,1.8,0.5,2,3,2h1.8v3.6h-3c-4.1,0-5.6-0.8-5.6-5.1v-15h-4.1v-3.6h4.1v-7.1h3.8
			C21.3,470.4,21.3,477.5,21.3,477.5z"/>
		<path d="M30.2,468.4H34v12.5l0,0c1.3-2.8,4.6-4.1,7.4-4.1c6.1,0,8.1,3.6,8.1,8.6v15.5h-3.8v-16c0-2.8-1.8-4.8-4.8-4.8
			c-4.8,0-7.1,3-7.1,7.4V501H30C30.2,501.2,30.2,468.4,30.2,468.4z"/>
		<path d="M76,493.6c-1,5.3-4.8,8.1-10.2,8.1c-7.6,0-11.2-5.3-11.4-12.5c0-7.1,4.6-12.2,11.2-12.2c8.4,0,10.9,7.9,10.7,13.5H58.5
			c-0.3,4.1,2.3,7.9,7.4,7.9c3.3,0,5.3-1.5,6.1-4.6L76,493.6L76,493.6z M72.2,486.9c-0.3-3.8-3-6.6-6.9-6.6c-4.1,0-6.6,3-6.9,6.6
			H72.2z"/>
		<path d="M93.3,468.4h3.8v12.2l0,0c1.3-2.5,4.3-3.8,7.6-3.8c7.4,0,10.9,5.8,10.9,12.5c0,6.6-3.6,12.2-10.7,12.2
			c-2.5,0-5.8-1-7.6-3.8l0,0v3h-3.8v-32.3L93.3,468.4L93.3,468.4z M104.2,480.3c-5.3,0-7.1,4.6-7.1,8.9c0,4.6,2,8.9,7.4,8.9
			c5.3,0,7.1-4.6,7.1-9.1C111.6,484.7,109.3,480.3,104.2,480.3z"/>
		<path d="M140.3,493.6c-1,5.3-4.8,8.1-10.2,8.1c-7.6,0-11.2-5.3-11.4-12.5c0-7.1,4.6-12.2,11.2-12.2c8.4,0,10.9,7.9,10.7,13.5
			h-17.8c-0.3,4.1,2.3,7.9,7.4,7.9c3.3,0,5.3-1.5,6.1-4.6L140.3,493.6L140.3,493.6z M136.5,486.9c-0.3-3.8-3-6.6-6.9-6.6
			c-4.1,0-6.6,3-6.9,6.6H136.5z"/>
		<path d="M147.2,493.6c0.3,3.6,3,4.6,6.4,4.6c2.5,0,5.8-0.5,5.8-3.6c0-3-3.8-3.6-7.6-4.3s-7.6-2-7.6-6.6c0-4.8,4.8-6.6,8.9-6.6
			c5.3,0,9.4,1.5,9.7,7.4H159c-0.3-3-3-4.1-5.6-4.1c-2.3,0-5.1,0.8-5.1,3c0,2.8,4.1,3.3,7.6,4.1c3.8,0.8,7.6,2,7.6,6.6
			c0,5.6-5.3,7.4-10.2,7.4c-5.3,0-9.9-2-9.9-8.1C143.3,493.6,147.2,493.6,147.2,493.6z"/>
		<path d="M173.1,477.5h4.8v3.6h-4.8v14.7c0,1.8,0.5,2,3,2h1.8v3.6h-3c-4.1,0-5.6-0.8-5.6-5.1v-15h-4.1v-3.6h4.1v-7.1h3.8V477.5
			L173.1,477.5z"/>
		<path d="M215.8,501.2H212v-3.3l0,0c-1.3,2.5-4.3,3.8-7.6,3.8c-7.4,0-10.9-5.8-10.9-12.5c0-6.6,3.6-12.2,10.7-12.2
			c2.5,0,5.8,1,7.6,3.8l0,0v-12.2h3.8v32.5h0.2V501.2z M204.8,498.1c5.3,0,7.1-4.6,7.1-8.9c0-4.6-2-8.9-7.4-8.9s-7.1,4.6-7.1,9.1
			C197.5,493.8,199.8,498.1,204.8,498.1z"/>
		<path d="M242.7,500.9c-0.8,0.5-1.5,0.8-2.8,0.8c-2,0-3.3-1-3.3-3.6c-2,2.5-5.1,3.6-8.4,3.6c-4.3,0-7.9-2-7.9-6.6
			c0-5.3,4.1-6.6,8.1-7.4c4.3-0.8,7.9-0.5,7.9-3.6c0-3.3-2.8-3.8-5.3-3.8c-3.3,0-5.6,1-5.8,4.6h-3.8c0.3-5.8,4.8-7.9,9.9-7.9
			c4.3,0,8.9,1,8.9,6.6v12.2c0,1.8,0,2.5,1.3,2.5c0.3,0,0.8,0,1.3-0.3L242.7,500.9L242.7,500.9z M236.6,489c-1.5,1-4.3,1-7.1,1.5
			c-2.5,0.5-4.8,1.3-4.8,4.3c0,2.5,2.3,3.6,4.6,3.6c5.1,0,7.1-3.3,7.1-5.3V489H236.6z"/>
		<path d="M248.8,493.6c0.3,3.6,3,4.6,6.4,4.6c2.5,0,5.6-0.5,5.6-3.6c0-3-3.8-3.6-7.6-4.3c-3.8-0.8-7.6-2-7.6-6.6
			c0-4.8,4.8-6.6,8.9-6.6c5.3,0,9.4,1.5,9.7,7.4h-3.8c-0.3-3-3-4.1-5.6-4.1c-2.3,0-5.1,0.8-5.1,3c0,2.8,4.1,3.3,7.6,4.1
			c3.8,0.8,7.6,2,7.6,6.6c0,5.6-5.3,7.4-10.2,7.4c-5.3,0-9.9-2-9.9-8.1C245,493.6,248.8,493.6,248.8,493.6z"/>
		<path d="M269.4,468.4h3.8v12.5l0,0c1.3-2.8,4.6-4.1,7.4-4.1c6.1,0,8.1,3.6,8.1,8.6v15.5h-3.8v-16c0-2.8-1.8-4.8-4.8-4.8
			c-4.8,0-7.1,3-7.1,7.4V501h-3.6C269.4,501.2,269.4,468.4,269.4,468.4z"/>
		<path d="M294.8,468.4h3.8v12.2l0,0c1.3-2.5,4.3-3.8,7.6-3.8c7.4,0,10.9,5.8,10.9,12.5c0,6.6-3.6,12.2-10.7,12.2
			c-2.5,0-5.8-1-7.6-3.8l0,0v3h-4.1v-32.3H294.8z M305.7,480.3c-5.3,0-7.1,4.6-7.1,8.9c0,4.6,2,8.9,7.4,8.9s7.1-4.6,7.1-9.1
			C313.1,484.7,310.8,480.3,305.7,480.3z"/>
		<path d="M332.2,476.8c7.6,0,11.4,5.3,11.4,12.5c0,6.9-4.1,12.5-11.4,12.5c-7.6,0-11.4-5.3-11.4-12.5
			C320.5,482.4,324.5,476.8,332.2,476.8z M332.2,498.1c4.1,0,7.4-3.3,7.4-8.9c0-5.8-3.3-8.9-7.4-8.9s-7.4,3.3-7.4,8.9
			C324.8,495.1,328.1,498.1,332.2,498.1z"/>
		<path d="M369,500.9c-0.8,0.5-1.5,0.8-2.8,0.8c-2,0-3.3-1-3.3-3.6c-2,2.5-5.1,3.6-8.4,3.6c-4.3,0-7.9-2-7.9-6.6
			c0-5.3,4.1-6.6,8.1-7.4c4.3-0.8,7.9-0.5,7.9-3.6c0-3.3-2.8-3.8-5.3-3.8c-3.3,0-5.6,1-5.8,4.6h-3.8c0.3-5.8,4.8-7.9,9.9-7.9
			c4.3,0,8.9,1,8.9,6.6v12.2c0,1.8,0,2.5,1.3,2.5c0.3,0,0.8,0,1.3-0.3L369,500.9L369,500.9z M362.7,489c-1.5,1-4.3,1-7.1,1.5
			c-2.5,0.5-4.8,1.3-4.8,4.3c0,2.5,2.3,3.6,4.6,3.6c5.1,0,7.1-3.3,7.1-5.3V489H362.7z"/>
		<path d="M372.6,477.5h3.6v5.1l0,0c1.8-3.8,4.6-5.6,8.6-5.6v4.1c-6.4,0-8.6,3.6-8.6,9.7v10.4h-3.8v-23.6h0.2V477.5z"/>
		<path d="M408.2,501.2h-3.8v-3.3l0,0c-1.3,2.5-4.3,3.8-7.6,3.8c-7.4,0-10.9-5.8-10.9-12.5c0-6.6,3.6-12.2,10.7-12.2
			c2.5,0,5.8,1,7.6,3.8l0,0v-12.2h3.8v32.5h0.2V501.2z M397.2,498.1c5.3,0,7.1-4.6,7.1-8.9c0-4.6-2-8.9-7.4-8.9
			c-5.3,0-7.1,4.6-7.1,9.1C389.9,493.8,392.1,498.1,397.2,498.1z"/>
		<path d="M450.3,501.2h-4.1l-4.8-18.8l0,0l-4.8,18.8h-4.3l-7.6-23.6h4.3l5.3,19.3l0,0l4.8-19.3h4.3l4.8,19.3l0,0l5.3-19.3h4.1
			L450.3,501.2z"/>
		<path d="M481.9,493.6c-1,5.3-4.8,8.1-10.2,8.1c-7.6,0-11.2-5.3-11.4-12.5c0-7.1,4.6-12.2,11.2-12.2c8.4,0,10.9,7.9,10.7,13.5
			h-17.8c-0.3,4.1,2.3,7.9,7.4,7.9c3.3,0,5.3-1.5,6.1-4.6L481.9,493.6L481.9,493.6z M478.1,486.9c-0.3-3.8-3-6.6-6.9-6.6
			c-4.1,0-6.6,3-6.9,6.6H478.1z"/>
		<path d="M507,500.9c-0.8,0.5-1.5,0.8-2.8,0.8c-2,0-3.3-1-3.3-3.6c-2,2.5-5.1,3.6-8.4,3.6c-4.3,0-7.9-2-7.9-6.6
			c0-5.3,4.1-6.6,8.1-7.4c4.3-0.8,7.9-0.5,7.9-3.6c0-3.3-2.8-3.8-5.3-3.8c-3.3,0-5.6,1-5.8,4.6h-3.8c0.3-5.8,4.8-7.9,9.9-7.9
			c4.3,0,8.9,1,8.9,6.6v12.2c0,1.8,0,2.5,1.3,2.5c0.3,0,0.8,0,1.3-0.3L507,500.9L507,500.9z M500.9,489c-1.5,1-4.3,1-7.1,1.5
			c-2.5,0.5-4.8,1.3-4.8,4.3c0,2.5,2.3,3.6,4.6,3.6c5.1,0,7.1-3.3,7.1-5.3L500.9,489L500.9,489z"/>
		<path d="M516.2,477.5h4.8v3.6h-4.8v14.7c0,1.8,0.5,2,3,2h1.8v3.6h-3c-4.1,0-5.6-0.8-5.6-5.1v-15h-4.1v-3.6h4.1v-7.1h3.8V477.5
			L516.2,477.5z"/>
		<path d="M525.1,468.4h3.8v12.5l0,0c1.3-2.8,4.6-4.1,7.4-4.1c6.1,0,8.1,3.6,8.1,8.6v15.5h-3.8v-16c0-2.8-1.8-4.8-4.8-4.8
			c-4.8,0-7.1,3-7.1,7.4V501h-3.8L525.1,468.4L525.1,468.4z"/>
		<path d="M570.8,493.6c-1,5.3-4.8,8.1-10.2,8.1c-7.6,0-11.2-5.3-11.4-12.5c0-7.1,4.6-12.2,11.2-12.2c8.4,0,10.9,7.9,10.7,13.5
			h-17.8c-0.3,4.1,2.3,7.9,7.4,7.9c3.3,0,5.3-1.5,6.1-4.6L570.8,493.6L570.8,493.6z M567,486.9c-0.3-3.8-3-6.6-6.9-6.6
			c-4.1,0-6.6,3-6.9,6.6H567z"/>
		<path d="M574.9,477.5h3.6v5.1l0,0c1.8-3.8,4.6-5.6,8.6-5.6v4.1c-6.4,0-8.6,3.6-8.6,9.7v10.4h-3.8L574.9,477.5L574.9,477.5z"/>
	</g>
	<path d="M484.9,414.5c-0.8-1.5-1.3-3.3-1.5-5.1H594c0,1.8-0.3,3.3-0.5,5.1H484.9z M502.7,363.7c5.8-3.3,12.5-5.1,19.6-5.1
		s13.7,1.8,19.6,5.1H502.7z M482.1,394.2c0.3-1.8,0.5-3.3,1-5.1h102.7c1.5,1.5,2.5,3.3,3.8,5.1H482.1z M484.9,384
		c0.8-1.8,1.5-3.6,2.5-5.1h70.4c0,0.3,0.3,0.3,0.3,0.5c1.8-0.3,3.3-0.5,5.1-0.5c6.4,0,11.9,1.8,16.8,5.1H484.9z M490.8,373.9
		c1.5-1.8,3-3.6,4.8-5.1h53.6c1.8,1.5,3.3,3.3,4.8,5.1H490.8z M593.2,404.3H482.1c-0.3-1.8-0.3-3.3-0.3-5.1h110
		C592.4,401,592.9,402.6,593.2,404.3z M591.9,419.6c-0.5,1.8-1.5,3.6-2.3,5.1h-98.9c-1.3-1.5-2.5-3.3-3.6-5.1H591.9z M495.6,429.8
		h90.2c-1.8,2-3.6,3.6-5.8,5.1h-77.3C500.2,433.6,497.9,431.8,495.6,429.8z"/>
</g>
</svg>
