<?xml version="1.0" encoding="utf-8"?>
<!-- Generator: Adobe Illustrator 16.0.0, SVG Export Plug-In . SVG Version: 6.00 Build 0)  -->
<!DOCTYPE svg PUBLIC "-//W3C//DTD SVG 1.1//EN" "http://www.w3.org/Graphics/SVG/1.1/DTD/svg11.dtd">
<svg version="1.1" id="Layer_1" xmlns="http://www.w3.org/2000/svg" xmlns:xlink="http://www.w3.org/1999/xlink" x="0px" y="0px"
	 width="128px" height="128px" viewBox="0 0 128 128" enable-background="new 0 0 128 128" xml:space="preserve">
<path fill="#FFFFFF" d="M101.037,71.585c-1.017-2.389-2.443-4.408-4.253-6.055c-1.832-1.623-3.989-2.852-6.517-3.664
	c-2.518-0.812-5.288-1.229-8.327-1.229c-2.957,0-5.914,0.139-8.896,0.416c-2.979,0.256-5.949,0.395-8.895,0.395
	c-2.957,0-5.938-0.139-8.931-0.395c-2.99-0.277-5.96-0.416-8.929-0.416c-6.135,0-11.099,1.67-14.891,4.963
	s-5.684,8.164-5.684,14.611c0,5.498,1.219,9.742,3.665,12.734c2.446,2.989,5.566,5.194,9.382,6.586
	c3.815,1.393,7.955,2.227,12.443,2.436c4.499,0.232,8.813,0.348,12.941,0.348c2.807,0,5.684-0.023,8.663-0.115
	c2.979-0.07,5.879-0.303,8.731-0.697c2.842-0.416,5.543-1.043,8.094-1.946c2.563-0.881,4.791-2.156,6.681-3.826
	c1.901-1.67,3.41-3.78,4.546-6.354c1.137-2.551,1.717-5.685,1.717-9.396C102.58,76.805,102.069,73.999,101.037,71.585z
	 M48.601,84.271c-1.045,1.764-2.309,2.645-3.781,2.645c-1.474,0-2.726-0.881-3.723-2.645c-1.009-1.762-1.508-3.896-1.508-6.4
	c0-2.506,0.499-4.639,1.508-6.426c0.997-1.785,2.249-2.666,3.723-2.666s2.736,0.881,3.781,2.666c1.043,1.787,1.564,3.92,1.564,6.426
	C50.166,80.374,49.644,82.509,48.601,84.271z M61.623,85.501c0.649-0.349,1.463-0.533,2.412-0.533c0.905,0,1.693,0.186,2.366,0.533
	c0.649,0.324,0.985,0.719,0.985,1.182c0,0.465-0.312,0.859-0.963,1.23c-0.648,0.348-1.438,0.533-2.39,0.533
	c-0.95,0-1.763-0.187-2.411-0.533c-0.673-0.371-0.998-0.767-0.998-1.23C60.626,86.22,60.951,85.825,61.623,85.501z M71.48,92.991
	c-0.604,1.787-1.577,3.226-2.898,4.291c-1.322,1.09-2.842,1.623-4.547,1.623c-1.623,0-3.107-0.533-4.43-1.623
	c-1.333-1.065-2.296-2.504-2.899-4.291c-0.23-0.602,0-1.065,0.673-1.414c0.604-0.231,1.067,0.023,1.368,0.742
	c1.021,2.875,2.783,4.291,5.288,4.268c1.172,0,2.25-0.395,3.213-1.184c0.963-0.766,1.635-1.809,2.019-3.084
	c0.302-0.766,0.8-1.021,1.473-0.742C71.342,91.81,71.596,92.272,71.48,92.991z M86.973,84.271c-1.008,1.764-2.25,2.645-3.723,2.645
	s-2.748-0.881-3.814-2.645c-1.055-1.762-1.59-3.896-1.59-6.4c0-2.506,0.535-4.639,1.59-6.426c1.066-1.785,2.343-2.666,3.814-2.666
	c1.438,0,2.668,0.881,3.699,2.666c1.021,1.787,1.531,3.92,1.531,6.426C88.481,80.374,87.971,82.509,86.973,84.271z"/>
<path fill="#FFFFFF" d="M0,0v128h128V0H0z M112.719,87.216c-2.518,5.707-6.09,10.205-10.717,13.453
	c-4.615,3.27-10.158,5.543-16.595,6.817c-6.437,1.3-13.567,1.927-21.373,1.927c-7.839,0-15.006-0.627-21.488-1.927
	c-6.481-1.274-12.015-3.549-16.595-6.817c-4.593-3.248-8.141-7.746-10.669-13.453c-2.517-5.705-3.78-12.965-3.78-21.801
	c0-4.338,0.695-8.56,2.11-12.642c1.392-4.082,3.537-7.747,6.425-10.993l-0.174-0.232l0.174-0.116
	c-0.604-1.483-1.021-3.015-1.229-4.615c-0.209-1.576-0.303-3.2-0.303-4.823c0-0.951,0.023-2.019,0.104-3.201
	c0.081-1.206,0.221-2.437,0.452-3.734c0.231-1.274,0.521-2.48,0.882-3.618c0.371-1.112,0.812-2.063,1.345-2.853h0.44
	c2.318,0,4.406,0.231,6.286,0.696c1.878,0.486,3.663,1.136,5.381,1.994c1.691,0.858,3.352,1.832,4.938,2.97
	c1.602,1.112,3.317,2.25,5.173,3.433c3.26-0.951,6.646-1.577,10.146-1.879c3.514-0.301,6.97-0.464,10.379-0.464
	c3.41,0,6.865,0.163,10.346,0.464c3.479,0.302,6.899,0.928,10.229,1.879c1.785-1.183,3.49-2.319,5.125-3.433
	c1.624-1.138,3.271-2.111,4.939-2.97c1.67-0.857,3.434-1.508,5.312-1.994c1.879-0.465,3.979-0.696,6.285-0.696h0.568
	c0.451,0.742,0.869,1.693,1.217,2.83c0.371,1.136,0.662,2.366,0.882,3.641c0.231,1.299,0.405,2.528,0.511,3.734
	c0.116,1.183,0.186,2.25,0.186,3.201c0,1.624-0.115,3.247-0.348,4.823c-0.232,1.601-0.604,3.132-1.137,4.615v0.116l-0.116,0.232
	c2.876,3.246,5.011,6.911,6.401,10.993c1.38,4.082,2.064,8.304,2.064,12.642C116.5,74.251,115.246,81.511,112.719,87.216z"/>
</svg>
