<?xml version="1.0" encoding="utf-8"?>
<!-- Generator: Adobe Illustrator 16.0.0, SVG Export Plug-In . SVG Version: 6.00 Build 0)  -->
<!DOCTYPE svg PUBLIC "-//W3C//DTD SVG 1.1//EN" "http://www.w3.org/Graphics/SVG/1.1/DTD/svg11.dtd">
<svg version="1.1" id="Layer_1" xmlns="http://www.w3.org/2000/svg" xmlns:xlink="http://www.w3.org/1999/xlink" x="0px" y="0px"
	 width="460px" height="200px" viewBox="0 0 460 200" enable-background="new 0 0 460 200" xml:space="preserve">
<rect fill="#FFFFFF" width="460" height="200"/>
<g>
	<path d="M50.776,72.477h7.989l15.26,24.529h0.102V72.477h7.528v36.563h-8.04L58.407,84.562h-0.103v24.478h-7.528V72.477z"/>
	<path d="M93.95,97.569c0.205,4.608,2.458,6.708,6.503,6.708c2.919,0,5.274-1.792,5.735-3.431h6.401
		c-2.048,6.247-6.401,8.91-12.393,8.91c-8.347,0-13.519-5.735-13.519-13.929c0-7.937,5.479-13.98,13.519-13.98
		c9.013,0,13.366,7.579,12.854,15.721H93.95z M105.779,92.96c-0.666-3.687-2.253-5.633-5.787-5.633c-4.609,0-5.94,3.584-6.042,5.633
		H105.779z"/>
	<path d="M142.191,109.04h-6.913v-3.687h-0.154c-1.844,2.97-5.019,4.403-8.091,4.403c-7.733,0-9.679-4.353-9.679-10.907V82.565
		h7.272v14.953c0,4.353,1.28,6.503,4.66,6.503c3.943,0,5.633-2.201,5.633-7.579V82.565h7.272V109.04z"/>
	<path d="M153.716,97.569c0.205,4.608,2.458,6.708,6.503,6.708c2.919,0,5.274-1.792,5.735-3.431h6.401
		c-2.048,6.247-6.401,8.91-12.393,8.91c-8.347,0-13.519-5.735-13.519-13.929c0-7.937,5.479-13.98,13.519-13.98
		c9.013,0,13.366,7.579,12.854,15.721H153.716z M165.545,92.96c-0.666-3.687-2.253-5.633-5.787-5.633
		c-4.609,0-5.94,3.584-6.042,5.633H165.545z"/>
	<path d="M177.89,72.477h19.715c6.555,0,10.703,4.558,10.703,10.088c0,4.301-1.741,7.527-5.787,9.166v0.103
		c3.943,1.024,5.07,4.865,5.326,8.552c0.154,2.305,0.103,6.606,1.536,8.654h-8.04c-0.973-2.304-0.871-5.838-1.28-8.757
		c-0.563-3.84-2.048-5.53-6.094-5.53h-8.04v14.287h-8.04V72.477z M185.93,89.018h8.808c3.585,0,5.531-1.536,5.531-5.223
		c0-3.534-1.946-5.07-5.531-5.07h-8.808V89.018z"/>
	<path d="M220.089,97.569c0.205,4.608,2.458,6.708,6.503,6.708c2.919,0,5.274-1.792,5.735-3.431h6.4
		c-2.048,6.247-6.4,8.91-12.392,8.91c-8.347,0-13.519-5.735-13.519-13.929c0-7.937,5.479-13.98,13.519-13.98
		c9.013,0,13.366,7.579,12.853,15.721H220.089z M231.918,92.96c-0.666-3.687-2.253-5.633-5.786-5.633
		c-4.609,0-5.94,3.584-6.042,5.633H231.918z"/>
	<path d="M249.128,100.437c0.051,3.174,2.714,4.456,5.581,4.456c2.1,0,4.763-0.82,4.763-3.381c0-2.201-3.021-2.969-8.245-4.096
		c-4.198-0.921-8.397-2.407-8.397-7.066c0-6.76,5.838-8.501,11.522-8.501c5.786,0,11.111,1.946,11.675,8.45h-6.913
		c-0.205-2.816-2.355-3.585-4.967-3.585c-1.639,0-4.046,0.308-4.046,2.458c0,2.612,4.097,2.97,8.245,3.943
		c4.25,0.973,8.397,2.509,8.397,7.425c0,6.965-6.042,9.218-12.085,9.218c-6.145,0-12.137-2.304-12.443-9.32H249.128z"/>
	<path d="M295.832,109.04h-6.913v-3.687h-0.153c-1.844,2.97-5.019,4.403-8.091,4.403c-7.732,0-9.679-4.353-9.679-10.907V82.565
		h7.271v14.953c0,4.353,1.28,6.503,4.66,6.503c3.943,0,5.633-2.201,5.633-7.579V82.565h7.271V109.04z"/>
	<path d="M301.57,82.565h6.862v3.584h0.103c1.895-2.714,4.66-4.302,8.091-4.302c3.329,0,6.299,1.229,7.732,4.404
		c1.536-2.305,4.302-4.404,7.989-4.404c5.632,0,9.678,2.612,9.678,9.474v17.718h-7.271V94.036c0-3.534-0.308-6.453-4.455-6.453
		c-4.097,0-4.865,3.38-4.865,6.708v14.748h-7.271V94.189c0-3.072,0.205-6.606-4.404-6.606c-1.434,0-4.916,0.922-4.916,6.094v15.362
		h-7.271V82.565z"/>
	<path d="M353.758,97.569c0.205,4.608,2.458,6.708,6.503,6.708c2.919,0,5.274-1.792,5.735-3.431h6.401
		c-2.048,6.247-6.401,8.91-12.393,8.91c-8.347,0-13.519-5.735-13.519-13.929c0-7.937,5.479-13.98,13.519-13.98
		c9.013,0,13.365,7.579,12.854,15.721H353.758z M365.587,92.96c-0.666-3.687-2.253-5.633-5.787-5.633
		c-4.608,0-5.939,3.584-6.042,5.633H365.587z"/>
	<path d="M408.041,86.918h-28.522v-3.329h28.522V86.918z M400.565,94.292h-21.047v-3.329h21.047V94.292z M408.041,101.666h-28.522
		v-3.329h28.522V101.666z M400.565,109.04h-21.047v-3.329h21.047V109.04z"/>
	<path d="M56.642,130.604c-0.27,0.162-0.612,0.252-1.099,0.252c-0.792,0-1.296-0.432-1.296-1.44c-0.846,0.99-1.98,1.44-3.277,1.44
		c-1.692,0-3.079-0.756-3.079-2.61c0-2.106,1.566-2.557,3.151-2.863c1.692-0.324,3.133-0.216,3.133-1.368
		c0-1.332-1.098-1.549-2.071-1.549c-1.296,0-2.25,0.396-2.323,1.765h-1.53c0.09-2.305,1.873-3.114,3.943-3.114
		c1.674,0,3.493,0.378,3.493,2.557v4.789c0,0.721,0,1.044,0.486,1.044c0.126,0,0.27-0.018,0.468-0.09V130.604z M54.157,125.832
		c-0.594,0.433-1.747,0.45-2.773,0.63c-1.008,0.181-1.873,0.541-1.873,1.675c0,1.009,0.864,1.368,1.801,1.368
		c2.017,0,2.845-1.26,2.845-2.106V125.832z"/>
	<path d="M64.002,127.705c0.054,1.368,1.242,1.8,2.502,1.8c0.955,0,2.25-0.216,2.25-1.386c0-1.188-1.512-1.387-3.042-1.729
		c-1.513-0.343-3.043-0.847-3.043-2.629c0-1.873,1.854-2.646,3.475-2.646c2.052,0,3.691,0.647,3.817,2.916h-1.53
		c-0.108-1.188-1.152-1.566-2.161-1.566c-0.918,0-1.98,0.253-1.98,1.188c0,1.099,1.62,1.278,3.042,1.621
		c1.531,0.342,3.043,0.846,3.043,2.646c0,2.215-2.07,2.935-3.961,2.935c-2.089,0-3.853-0.846-3.943-3.15H64.002z"/>
	<path d="M73.686,119.656h-1.531v-1.872h1.531V119.656z M72.155,121.331h1.531v9.309h-1.531V121.331z"/>
	<path d="M76.061,121.331h1.44v1.368h0.036c0.684-1.044,1.729-1.584,3.007-1.584c1.134,0,2.179,0.45,2.557,1.584
		c0.63-0.99,1.729-1.584,2.917-1.584c1.854,0,3.097,0.773,3.097,2.7v6.824h-1.53v-6.104c0-1.152-0.306-2.071-1.8-2.071
		c-1.477,0-2.431,0.937-2.431,2.377v5.798h-1.53v-6.104c0-1.207-0.378-2.071-1.747-2.071c-1.818,0-2.485,1.675-2.485,2.377v5.798
		h-1.53V121.331z"/>
	<path d="M91.469,121.331H93v1.26h0.036c0.504-1.025,1.692-1.476,2.971-1.476c2.863,0,4.285,2.269,4.285,4.897
		c0,2.628-1.404,4.843-4.249,4.843c-0.955,0-2.323-0.36-3.007-1.458H93v4.808h-1.53V121.331z M95.791,122.465
		c-2.053,0-2.845,1.765-2.845,3.512c0,1.836,0.829,3.528,2.935,3.528c2.088,0,2.791-1.782,2.791-3.601
		C98.671,124.157,97.771,122.465,95.791,122.465z"/>
	<path d="M102.179,117.784h1.531v12.855h-1.531V117.784z"/>
	<path d="M114.025,127.687c-0.414,2.053-1.891,3.169-3.979,3.169c-2.971,0-4.375-2.053-4.466-4.897c0-2.791,1.837-4.843,4.375-4.843
		c3.295,0,4.303,3.078,4.213,5.329h-6.968c-0.054,1.62,0.864,3.061,2.899,3.061c1.26,0,2.143-0.611,2.413-1.818H114.025z
		 M112.548,125.094c-0.072-1.458-1.17-2.629-2.683-2.629c-1.603,0-2.557,1.207-2.665,2.629H112.548z"/>
	<path d="M124.067,124.031l-4.231-6.247h2.053l3.205,5.023l3.349-5.023h1.908l-4.249,6.247l4.519,6.608h-2.088l-3.457-5.312
		l-3.565,5.312h-1.927L124.067,124.031z"/>
	<path d="M132.04,117.784h2.341l4.051,10.803l4.069-10.803h2.341v12.855h-1.621v-10.695h-0.036l-4.016,10.695h-1.458l-4.016-10.695
		h-0.036v10.695h-1.621V117.784z"/>
	<path d="M147.682,117.784h1.71v11.415h6.806v1.44h-8.517V117.784z"/>
	<path d="M162.496,117.784h1.53v4.807h0.036c0.504-1.025,1.692-1.476,2.971-1.476c2.863,0,4.285,2.269,4.285,4.897
		c0,2.628-1.404,4.843-4.249,4.843c-0.954,0-2.323-0.36-3.007-1.458h-0.036v1.242h-1.53V117.784z M166.817,122.465
		c-2.053,0-2.845,1.765-2.845,3.512c0,1.836,0.829,3.528,2.935,3.528c2.089,0,2.791-1.782,2.791-3.601
		C169.698,124.157,168.798,122.465,166.817,122.465z"/>
	<path d="M181.362,130.604c-0.27,0.162-0.612,0.252-1.099,0.252c-0.792,0-1.296-0.432-1.296-1.44c-0.846,0.99-1.98,1.44-3.277,1.44
		c-1.692,0-3.079-0.756-3.079-2.61c0-2.106,1.567-2.557,3.151-2.863c1.692-0.324,3.133-0.216,3.133-1.368
		c0-1.332-1.099-1.549-2.071-1.549c-1.296,0-2.25,0.396-2.323,1.765h-1.53c0.09-2.305,1.873-3.114,3.943-3.114
		c1.674,0,3.493,0.378,3.493,2.557v4.789c0,0.721,0,1.044,0.486,1.044c0.126,0,0.27-0.018,0.468-0.09V130.604z M178.877,125.832
		c-0.594,0.433-1.747,0.45-2.773,0.63c-1.008,0.181-1.873,0.541-1.873,1.675c0,1.009,0.864,1.368,1.801,1.368
		c2.017,0,2.845-1.26,2.845-2.106V125.832z"/>
	<path d="M183.718,127.705c0.054,1.368,1.242,1.8,2.502,1.8c0.955,0,2.25-0.216,2.25-1.386c0-1.188-1.512-1.387-3.042-1.729
		c-1.513-0.343-3.043-0.847-3.043-2.629c0-1.873,1.854-2.646,3.475-2.646c2.052,0,3.691,0.647,3.817,2.916h-1.53
		c-0.108-1.188-1.152-1.566-2.161-1.566c-0.918,0-1.98,0.253-1.98,1.188c0,1.099,1.62,1.278,3.042,1.621
		c1.531,0.342,3.043,0.846,3.043,2.646c0,2.215-2.07,2.935-3.961,2.935c-2.089,0-3.853-0.846-3.943-3.15H183.718z"/>
	<path d="M199.722,127.687c-0.414,2.053-1.891,3.169-3.979,3.169c-2.971,0-4.375-2.053-4.465-4.897c0-2.791,1.836-4.843,4.375-4.843
		c3.295,0,4.303,3.078,4.213,5.329h-6.968c-0.054,1.62,0.864,3.061,2.899,3.061c1.26,0,2.143-0.611,2.413-1.818H199.722z
		 M198.245,125.094c-0.072-1.458-1.17-2.629-2.683-2.629c-1.603,0-2.557,1.207-2.665,2.629H198.245z"/>
	<path d="M209.766,130.64h-1.53v-1.261h-0.036c-0.504,1.026-1.692,1.477-2.971,1.477c-2.863,0-4.285-2.269-4.285-4.897
		s1.404-4.843,4.249-4.843c0.954,0,2.323,0.359,3.007,1.458h0.036v-4.789h1.53V130.64z M205.444,129.505
		c2.053,0,2.845-1.764,2.845-3.511c0-1.837-0.828-3.529-2.935-3.529c-2.089,0-2.791,1.783-2.791,3.602
		C202.563,127.812,203.464,129.505,205.444,129.505z"/>
	<path d="M219.25,121.331h1.854v1.351h-1.854v5.779c0,0.702,0.198,0.828,1.152,0.828h0.702v1.351h-1.17
		c-1.584,0-2.214-0.324-2.214-2.034v-5.924h-1.584v-1.351h1.584v-2.791h1.53V121.331z"/>
	<path d="M230.735,127.687c-0.414,2.053-1.891,3.169-3.979,3.169c-2.971,0-4.375-2.053-4.465-4.897c0-2.791,1.836-4.843,4.375-4.843
		c3.295,0,4.303,3.078,4.213,5.329h-6.968c-0.054,1.62,0.864,3.061,2.899,3.061c1.26,0,2.143-0.611,2.413-1.818H230.735z
		 M229.259,125.094c-0.072-1.458-1.17-2.629-2.683-2.629c-1.603,0-2.557,1.207-2.665,2.629H229.259z"/>
	<path d="M232.461,121.331h1.439v1.368h0.037c0.684-1.044,1.729-1.584,3.006-1.584c1.135,0,2.18,0.45,2.557,1.584
		c0.631-0.99,1.729-1.584,2.918-1.584c1.854,0,3.096,0.773,3.096,2.7v6.824h-1.529v-6.104c0-1.152-0.307-2.071-1.801-2.071
		c-1.477,0-2.432,0.937-2.432,2.377v5.798h-1.529v-6.104c0-1.207-0.379-2.071-1.747-2.071c-1.818,0-2.485,1.675-2.485,2.377v5.798
		h-1.529V121.331z"/>
	<path d="M247.869,121.331h1.529v1.26h0.037c0.504-1.025,1.691-1.476,2.971-1.476c2.862,0,4.285,2.269,4.285,4.897
		c0,2.628-1.404,4.843-4.25,4.843c-0.954,0-2.322-0.36-3.006-1.458h-0.037v4.808h-1.529V121.331z M252.189,122.465
		c-2.053,0-2.845,1.765-2.845,3.512c0,1.836,0.829,3.528,2.935,3.528c2.089,0,2.791-1.782,2.791-3.601
		C255.07,124.157,254.17,122.465,252.189,122.465z"/>
	<path d="M258.578,117.784h1.531v12.855h-1.531V117.784z"/>
	<path d="M270.73,130.604c-0.27,0.162-0.612,0.252-1.099,0.252c-0.792,0-1.296-0.432-1.296-1.44c-0.847,0.99-1.98,1.44-3.277,1.44
		c-1.692,0-3.079-0.756-3.079-2.61c0-2.106,1.567-2.557,3.151-2.863c1.692-0.324,3.133-0.216,3.133-1.368
		c0-1.332-1.099-1.549-2.07-1.549c-1.297,0-2.251,0.396-2.323,1.765h-1.53c0.09-2.305,1.873-3.114,3.943-3.114
		c1.674,0,3.492,0.378,3.492,2.557v4.789c0,0.721,0,1.044,0.486,1.044c0.127,0,0.271-0.018,0.469-0.09V130.604z M268.246,125.832
		c-0.595,0.433-1.747,0.45-2.773,0.63c-1.008,0.181-1.873,0.541-1.873,1.675c0,1.009,0.865,1.368,1.801,1.368
		c2.018,0,2.846-1.26,2.846-2.106V125.832z"/>
	<path d="M274.273,121.331h1.855v1.351h-1.855v5.779c0,0.702,0.199,0.828,1.152,0.828h0.703v1.351h-1.171
		c-1.584,0-2.214-0.324-2.214-2.034v-5.924h-1.585v-1.351h1.585v-2.791h1.529V121.331z"/>
	<path d="M285.76,127.687c-0.414,2.053-1.891,3.169-3.979,3.169c-2.971,0-4.375-2.053-4.465-4.897c0-2.791,1.837-4.843,4.375-4.843
		c3.295,0,4.304,3.078,4.214,5.329h-6.969c-0.054,1.62,0.864,3.061,2.898,3.061c1.261,0,2.143-0.611,2.413-1.818H285.76z
		 M284.283,125.094c-0.072-1.458-1.17-2.629-2.683-2.629c-1.603,0-2.557,1.207-2.665,2.629H284.283z"/>
</g>
</svg>
