<?xml version="1.0" encoding="utf-8"?>
<!-- Generator: Adobe Illustrator 16.0.0, SVG Export Plug-In . SVG Version: 6.00 Build 0)  -->
<!DOCTYPE svg PUBLIC "-//W3C//DTD SVG 1.1//EN" "http://www.w3.org/Graphics/SVG/1.1/DTD/svg11.dtd">
<svg version="1.1" id="Layer_1" xmlns="http://www.w3.org/2000/svg" xmlns:xlink="http://www.w3.org/1999/xlink" x="0px" y="0px"
	 width="460px" height="200px" viewBox="0 0 460 200" enable-background="new 0 0 460 200" xml:space="preserve">
<rect fill="#FFFFFF" width="460" height="200"/>
<g enable-background="new    ">
	<path d="M106.727,72.478h7.989l15.26,24.528h0.102V72.478h7.528v36.562h-8.04l-15.209-24.478h-0.103v24.478h-7.528V72.478z"/>
	<path d="M149.901,97.569c0.205,4.608,2.458,6.708,6.503,6.708c2.919,0,5.274-1.792,5.735-3.431h6.401
		c-2.048,6.247-6.401,8.91-12.393,8.91c-8.347,0-13.519-5.735-13.519-13.929c0-7.938,5.479-13.979,13.519-13.979
		c9.013,0,13.366,7.578,12.854,15.721H149.901z M161.73,92.961c-0.666-3.688-2.253-5.634-5.787-5.634
		c-4.609,0-5.94,3.585-6.042,5.634H161.73z"/>
	<path d="M198.142,109.04h-6.913v-3.688h-0.154c-1.844,2.971-5.019,4.404-8.091,4.404c-7.733,0-9.679-4.353-9.679-10.907V82.565
		h7.272v14.953c0,4.353,1.28,6.503,4.66,6.503c3.943,0,5.633-2.202,5.633-7.579V82.565h7.272V109.04z"/>
	<path d="M209.667,97.569c0.205,4.608,2.458,6.708,6.503,6.708c2.919,0,5.274-1.792,5.735-3.431h6.401
		c-2.048,6.247-6.401,8.91-12.393,8.91c-8.347,0-13.519-5.735-13.519-13.929c0-7.938,5.479-13.979,13.519-13.979
		c9.013,0,13.366,7.578,12.854,15.721H209.667z M221.496,92.961c-0.666-3.688-2.253-5.634-5.787-5.634
		c-4.609,0-5.94,3.585-6.042,5.634H221.496z"/>
	<path d="M260.264,104.893c-2.816,3.636-6.503,5.018-10.037,5.018c-11.316,0-17.974-8.449-17.974-18.998
		c0-10.856,6.657-19.306,17.974-19.306c7.477,0,14.544,4.609,15.414,12.904h-7.682c-0.921-4.045-3.942-6.145-7.732-6.145
		c-7.22,0-9.934,6.145-9.934,12.546c0,6.094,2.714,12.239,9.934,12.239c5.225,0,8.245-2.816,8.706-7.887h-8.091v-5.991h15.362
		v19.767h-5.12L260.264,104.893z"/>
	<path d="M271.637,90.707c0.41-6.811,6.504-8.858,12.443-8.858c5.275,0,11.625,1.178,11.625,7.527v13.775
		c0,2.406,0.256,4.813,0.922,5.889h-7.375c-0.256-0.819-0.461-1.689-0.512-2.561c-2.305,2.407-5.684,3.277-8.91,3.277
		c-5.019,0-9.013-2.509-9.013-7.938c0-5.991,4.507-7.425,9.013-8.039c4.455-0.666,8.604-0.513,8.604-3.482
		c0-3.124-2.151-3.585-4.711-3.585c-2.766,0-4.559,1.127-4.814,3.994H271.637z M288.434,96.084c-1.229,1.075-3.79,1.127-6.043,1.536
		c-2.254,0.461-4.302,1.229-4.302,3.893c0,2.714,2.1,3.38,4.455,3.38c5.685,0,5.89-4.507,5.89-6.095V96.084z"/>
	<path d="M301.545,72.478h7.271v36.562h-7.271V72.478z"/>
</g>
<g enable-background="new    ">
	<path d="M323.463,90.195h-6.555V83.59h6.555V90.195z M323.463,99.669h-6.555v-6.657h6.555V99.669z M323.463,108.989h-6.555v-6.555
		h6.555V108.989z M332.937,90.195h-6.606V83.59h6.606V90.195z M332.937,99.669h-6.606v-6.657h6.606V99.669z M332.937,108.989h-6.606
		v-6.555h6.606V108.989z M342.309,90.195h-6.606V83.59h6.606V90.195z M342.309,99.618h-6.606v-6.657h6.606V99.618z M342.309,108.989
		h-6.606v-6.555h6.606V108.989z M351.68,90.195h-6.555V83.59h6.555V90.195z M351.68,99.618h-6.555v-6.657h6.555V99.618z
		 M351.68,108.989h-6.555v-6.657h6.555V108.989z"/>
</g>
<g enable-background="new    ">
	<path d="M112.593,130.604c-0.27,0.162-0.612,0.252-1.099,0.252c-0.792,0-1.296-0.432-1.296-1.44c-0.846,0.99-1.98,1.44-3.277,1.44
		c-1.692,0-3.079-0.756-3.079-2.61c0-2.106,1.566-2.557,3.151-2.863c1.692-0.324,3.133-0.216,3.133-1.368
		c0-1.332-1.098-1.549-2.071-1.549c-1.296,0-2.25,0.396-2.323,1.765h-1.53c0.09-2.305,1.873-3.114,3.943-3.114
		c1.674,0,3.493,0.378,3.493,2.557v4.789c0,0.721,0,1.044,0.486,1.044c0.126,0,0.27-0.018,0.468-0.09V130.604z M110.108,125.832
		c-0.594,0.433-1.747,0.45-2.773,0.63c-1.008,0.181-1.873,0.541-1.873,1.675c0,1.009,0.864,1.368,1.801,1.368
		c2.017,0,2.845-1.26,2.845-2.106V125.832z"/>
	<path d="M119.953,127.705c0.054,1.368,1.242,1.8,2.502,1.8c0.955,0,2.25-0.216,2.25-1.386c0-1.188-1.512-1.387-3.042-1.729
		c-1.513-0.343-3.043-0.847-3.043-2.629c0-1.873,1.854-2.646,3.475-2.646c2.052,0,3.691,0.647,3.817,2.916h-1.53
		c-0.108-1.188-1.152-1.566-2.161-1.566c-0.918,0-1.98,0.253-1.98,1.188c0,1.099,1.62,1.278,3.042,1.621
		c1.531,0.342,3.043,0.846,3.043,2.646c0,2.215-2.07,2.935-3.961,2.935c-2.089,0-3.853-0.846-3.943-3.15H119.953z"/>
	<path d="M129.637,119.656h-1.531v-1.872h1.531V119.656z M128.106,121.331h1.531v9.309h-1.531V121.331z"/>
	<path d="M132.012,121.331h1.44v1.368h0.036c0.684-1.044,1.729-1.584,3.007-1.584c1.134,0,2.179,0.45,2.557,1.584
		c0.63-0.99,1.729-1.584,2.917-1.584c1.854,0,3.097,0.773,3.097,2.7v6.824h-1.53v-6.104c0-1.152-0.306-2.071-1.8-2.071
		c-1.477,0-2.431,0.937-2.431,2.377v5.798h-1.53v-6.104c0-1.207-0.378-2.071-1.747-2.071c-1.818,0-2.485,1.675-2.485,2.377v5.798
		h-1.53V121.331z"/>
	<path d="M147.42,121.331h1.53v1.26h0.036c0.504-1.025,1.692-1.476,2.971-1.476c2.863,0,4.285,2.269,4.285,4.897
		c0,2.628-1.404,4.843-4.249,4.843c-0.955,0-2.323-0.36-3.007-1.458h-0.036v4.808h-1.53V121.331z M151.741,122.465
		c-2.053,0-2.845,1.765-2.845,3.512c0,1.836,0.829,3.528,2.935,3.528c2.088,0,2.791-1.782,2.791-3.601
		C154.622,124.157,153.722,122.465,151.741,122.465z"/>
	<path d="M158.129,117.784h1.531v12.855h-1.531V117.784z"/>
	<path d="M169.976,127.687c-0.414,2.053-1.891,3.169-3.979,3.169c-2.971,0-4.375-2.053-4.466-4.897c0-2.791,1.837-4.843,4.375-4.843
		c3.295,0,4.303,3.078,4.213,5.329h-6.968c-0.054,1.62,0.864,3.061,2.899,3.061c1.26,0,2.143-0.611,2.413-1.818H169.976z
		 M168.499,125.094c-0.072-1.458-1.17-2.629-2.683-2.629c-1.603,0-2.557,1.207-2.665,2.629H168.499z"/>
	<path d="M176.705,121.331h1.44v1.477h0.036c0.648-1.152,1.692-1.692,3.025-1.692c2.449,0,3.205,1.404,3.205,3.402v6.122h-1.531
		v-6.302c0-1.135-0.72-1.873-1.891-1.873c-1.854,0-2.755,1.243-2.755,2.917v5.258h-1.53V121.331z"/>
	<path d="M190.728,121.115c2.953,0,4.52,2.143,4.52,4.879c0,2.719-1.566,4.861-4.52,4.861c-2.953,0-4.52-2.143-4.52-4.861
		C186.208,123.258,187.775,121.115,190.728,121.115z M190.728,129.505c1.603,0,2.899-1.26,2.899-3.511
		c0-2.269-1.296-3.529-2.899-3.529s-2.899,1.261-2.899,3.529C187.829,128.245,189.125,129.505,190.728,129.505z"/>
	<path d="M196.793,124.914h5.204v1.44h-5.204V124.914z"/>
	<path d="M212.365,130.64h-1.53v-1.261h-0.036c-0.504,1.026-1.692,1.477-2.971,1.477c-2.863,0-4.285-2.269-4.285-4.897
		s1.404-4.843,4.249-4.843c0.954,0,2.323,0.359,3.007,1.458h0.036v-4.789h1.53V130.64z M208.043,129.505
		c2.053,0,2.845-1.764,2.845-3.511c0-1.837-0.828-3.529-2.935-3.529c-2.089,0-2.791,1.783-2.791,3.602
		C205.163,127.812,206.063,129.505,208.043,129.505z"/>
	<path d="M222.967,130.604c-0.27,0.162-0.612,0.252-1.099,0.252c-0.792,0-1.296-0.432-1.296-1.44c-0.846,0.99-1.98,1.44-3.277,1.44
		c-1.692,0-3.079-0.756-3.079-2.61c0-2.106,1.566-2.557,3.151-2.863c1.692-0.324,3.133-0.216,3.133-1.368
		c0-1.332-1.098-1.549-2.071-1.549c-1.296,0-2.25,0.396-2.323,1.765h-1.53c0.09-2.305,1.873-3.114,3.943-3.114
		c1.674,0,3.493,0.378,3.493,2.557v4.789c0,0.721,0,1.044,0.486,1.044c0.126,0,0.27-0.018,0.468-0.09V130.604z M220.482,125.832
		c-0.594,0.433-1.747,0.45-2.773,0.63c-1.008,0.181-1.873,0.541-1.873,1.675c0,1.009,0.864,1.368,1.801,1.368
		c2.017,0,2.845-1.26,2.845-2.106V125.832z"/>
	<path d="M226.511,121.331h1.854v1.351h-1.854v5.779c0,0.702,0.198,0.828,1.152,0.828h0.702v1.351h-1.17
		c-1.584,0-2.214-0.324-2.214-2.034v-5.924h-1.584v-1.351h1.584v-2.791h1.53V121.331z"/>
	<path d="M238.303,130.604c-0.271,0.162-0.613,0.252-1.1,0.252c-0.791,0-1.296-0.432-1.296-1.44c-0.847,0.99-1.98,1.44-3.276,1.44
		c-1.693,0-3.08-0.756-3.08-2.61c0-2.106,1.567-2.557,3.152-2.863c1.691-0.324,3.133-0.216,3.133-1.368
		c0-1.332-1.1-1.549-2.071-1.549c-1.296,0-2.251,0.396-2.323,1.765h-1.53c0.09-2.305,1.873-3.114,3.944-3.114
		c1.674,0,3.492,0.378,3.492,2.557v4.789c0,0.721,0,1.044,0.486,1.044c0.126,0,0.27-0.018,0.469-0.09V130.604z M235.817,125.832
		c-0.595,0.433-1.747,0.45-2.772,0.63c-1.009,0.181-1.873,0.541-1.873,1.675c0,1.009,0.864,1.368,1.801,1.368
		c2.017,0,2.845-1.26,2.845-2.106V125.832z"/>
	<path d="M239.775,117.784h1.531v4.807h0.035c0.504-1.025,1.693-1.476,2.971-1.476c2.863,0,4.285,2.269,4.285,4.897
		c0,2.628-1.404,4.843-4.248,4.843c-0.955,0-2.323-0.36-3.008-1.458h-0.035v1.242h-1.531V117.784z M244.098,122.465
		c-2.053,0-2.846,1.765-2.846,3.512c0,1.836,0.828,3.528,2.936,3.528c2.088,0,2.791-1.782,2.791-3.601
		C246.979,124.157,246.078,122.465,244.098,122.465z"/>
	<path d="M258.643,130.604c-0.271,0.162-0.613,0.252-1.1,0.252c-0.791,0-1.296-0.432-1.296-1.44c-0.847,0.99-1.98,1.44-3.276,1.44
		c-1.693,0-3.08-0.756-3.08-2.61c0-2.106,1.567-2.557,3.152-2.863c1.691-0.324,3.133-0.216,3.133-1.368
		c0-1.332-1.1-1.549-2.071-1.549c-1.296,0-2.251,0.396-2.323,1.765h-1.529c0.09-2.305,1.872-3.114,3.943-3.114
		c1.674,0,3.492,0.378,3.492,2.557v4.789c0,0.721,0,1.044,0.486,1.044c0.126,0,0.27-0.018,0.469-0.09V130.604z M256.157,125.832
		c-0.595,0.433-1.747,0.45-2.772,0.63c-1.009,0.181-1.873,0.541-1.873,1.675c0,1.009,0.864,1.368,1.801,1.368
		c2.017,0,2.845-1.26,2.845-2.106V125.832z"/>
	<path d="M260.998,127.705c0.053,1.368,1.242,1.8,2.502,1.8c0.955,0,2.25-0.216,2.25-1.386c0-1.188-1.512-1.387-3.042-1.729
		c-1.513-0.343-3.043-0.847-3.043-2.629c0-1.873,1.854-2.646,3.476-2.646c2.052,0,3.69,0.647,3.816,2.916h-1.53
		c-0.108-1.188-1.152-1.566-2.161-1.566c-0.918,0-1.98,0.253-1.98,1.188c0,1.099,1.621,1.278,3.043,1.621
		c1.531,0.342,3.043,0.846,3.043,2.646c0,2.215-2.07,2.935-3.961,2.935c-2.089,0-3.854-0.846-3.943-3.15H260.998z"/>
	<path d="M277.002,127.687c-0.414,2.053-1.891,3.169-3.98,3.169c-2.971,0-4.375-2.053-4.465-4.897c0-2.791,1.837-4.843,4.375-4.843
		c3.295,0,4.304,3.078,4.214,5.329h-6.968c-0.055,1.62,0.863,3.061,2.898,3.061c1.26,0,2.143-0.611,2.412-1.818H277.002z
		 M275.525,125.094c-0.072-1.458-1.171-2.629-2.684-2.629c-1.602,0-2.557,1.207-2.664,2.629H275.525z"/>
	<path d="M291.762,129.848c0,3.024-1.387,4.573-4.322,4.573c-1.746,0-3.763-0.702-3.853-2.737h1.53
		c0.072,1.116,1.404,1.513,2.413,1.513c1.999,0,2.79-1.44,2.79-3.529v-0.611h-0.035c-0.504,1.134-1.729,1.692-2.898,1.692
		c-2.773,0-4.16-2.179-4.16-4.718c0-2.196,1.08-4.915,4.304-4.915c1.171,0,2.214,0.521,2.772,1.548h0.018v-1.332h1.441V129.848z
		 M290.249,125.796c0-1.639-0.72-3.331-2.647-3.331c-1.962,0-2.754,1.603-2.754,3.386c0,1.674,0.611,3.547,2.629,3.547
		C289.492,129.397,290.249,127.543,290.249,125.796z"/>
	<path d="M302.31,130.604c-0.271,0.162-0.612,0.252-1.099,0.252c-0.792,0-1.297-0.432-1.297-1.44c-0.846,0.99-1.98,1.44-3.276,1.44
		c-1.692,0-3.079-0.756-3.079-2.61c0-2.106,1.566-2.557,3.151-2.863c1.692-0.324,3.133-0.216,3.133-1.368
		c0-1.332-1.099-1.549-2.071-1.549c-1.296,0-2.25,0.396-2.322,1.765h-1.53c0.09-2.305,1.872-3.114,3.943-3.114
		c1.675,0,3.493,0.378,3.493,2.557v4.789c0,0.721,0,1.044,0.486,1.044c0.125,0,0.27-0.018,0.468-0.09V130.604z M299.824,125.832
		c-0.594,0.433-1.746,0.45-2.772,0.63c-1.009,0.181-1.872,0.541-1.872,1.675c0,1.009,0.863,1.368,1.801,1.368
		c2.016,0,2.844-1.26,2.844-2.106V125.832z"/>
	<path d="M303.818,117.784h1.531v12.855h-1.531V117.784z"/>
	<path d="M307.814,117.784h1.53v12.855h-1.53V117.784z"/>
	<path d="M319.66,127.687c-0.414,2.053-1.891,3.169-3.979,3.169c-2.971,0-4.375-2.053-4.465-4.897c0-2.791,1.836-4.843,4.375-4.843
		c3.295,0,4.303,3.078,4.213,5.329h-6.969c-0.053,1.62,0.865,3.061,2.899,3.061c1.261,0,2.143-0.611,2.413-1.818H319.66z
		 M318.184,125.094c-0.071-1.458-1.17-2.629-2.682-2.629c-1.604,0-2.557,1.207-2.666,2.629H318.184z"/>
	<path d="M321.332,121.331h1.439v1.963h0.037c0.738-1.495,1.764-2.233,3.42-2.179v1.62c-2.467,0-3.366,1.404-3.366,3.763v4.142
		h-1.53V121.331z"/>
	<path d="M331.035,131.882c-0.703,1.818-1.333,2.485-2.701,2.485c-0.36,0-0.721-0.036-1.062-0.162V132.8
		c0.288,0.091,0.594,0.217,0.9,0.217c0.63,0,0.973-0.307,1.26-0.847l0.631-1.584l-3.691-9.255h1.729l2.719,7.616h0.036l2.61-7.616
		h1.621L331.035,131.882z"/>
</g>
</svg>
