<?xml version="1.0" encoding="utf-8"?>
<!-- Generator: Adobe Illustrator 18.0.0, SVG Export Plug-In . SVG Version: 6.00 Build 0)  -->
<!DOCTYPE svg PUBLIC "-//W3C//DTD SVG 1.1//EN" "http://www.w3.org/Graphics/SVG/1.1/DTD/svg11.dtd">
<svg version="1.1" id="Layer_1" xmlns="http://www.w3.org/2000/svg" xmlns:xlink="http://www.w3.org/1999/xlink" x="0px" y="0px"
	 viewBox="-0.5 45.9 721 222.6" enable-background="new -0.5 45.9 721 222.6" xml:space="preserve">
<path fill="#FFFFFF" d="M177.8,106.8c0-4.5-2.8-6.1-6.8-6.1h-10.4v11.9h10.2C174.5,112.5,177.8,111.2,177.8,106.8z"/>
<path fill="#FFFFFF" d="M176,89c0-4.1-3.1-5-6.6-5h-8.9v10.1h9.6C173.6,94.2,176,92.7,176,89z"/>
<path fill="#FFFFFF" d="M0,46.4V268h720V46.4H0z M151.7,76.6h20.4c8.3,0,13.8,2.7,13.8,10.7c0,4.2-2.1,7.2-5.9,9
	c5.3,1.5,7.9,5.6,7.9,10.9c0,8.8-7.5,12.5-15.2,12.5h-21V76.6L151.7,76.6z M106.7,76.6h9.5v26.9c0,4.7,1.2,9.4,8.9,9.4
	c6.8,0,9-2.9,9-9.4V76.6h9.5v26.9c0,11.7-6.9,17.4-18.5,17.4s-18.4-5.6-18.4-17.4L106.7,76.6L106.7,76.6z M66.4,76.6h35.5v8h-13
	v35.3h-9.5V84.6h-13V76.6L66.4,76.6z M42.1,101c-6.4-1.7-12.9-4.2-12.9-12.3c0-8.8,8.3-13.1,16.2-13.1c9,0,17.3,4,17.3,14h-9.3
	c-0.3-5.2-4-6.6-8.6-6.6c-3,0-6.6,1.3-6.6,4.9c0,3.4,2,3.8,12.9,6.6c3.2,0.7,13,2.7,13,12.6c0,7.9-6.2,13.9-18,13.9
	c-9.6,0-18.5-4.7-18.4-15.4h9.2c0,5.7,4.5,8,9.6,8c3.4,0,8.4-1,8.4-5.4C55,103.5,48.5,102.7,42.1,101z M448.2,200h-416v-8.4h416V200
	z M692.4,178.5H32.2v-8.4h660.2V178.5z M692.4,157H32.2v-8.4h660.2V157z"/>
</svg>
