<?xml version="1.0" encoding="utf-8"?>
<!-- Generator: Adobe Illustrator 18.0.0, SVG Export Plug-In . SVG Version: 6.00 Build 0)  -->
<!DOCTYPE svg PUBLIC "-//W3C//DTD SVG 1.1//EN" "http://www.w3.org/Graphics/SVG/1.1/DTD/svg11.dtd">
<svg version="1.1" id="Layer_1" xmlns="http://www.w3.org/2000/svg" xmlns:xlink="http://www.w3.org/1999/xlink" x="0px" y="0px"
	 viewBox="0 398 720 322.1" enable-background="new 0 398 720 322.1" xml:space="preserve">
<path fill="#FFFFFF" d="M573.3,573.7h59.8v8.2l17.3-13.8l-17.3-15v8h-47.2l0-47.2h8L579,496.7l-13.8,17.2h8.1V573.7z M593.5,533.9
	l12.3-12.4h-12.3V533.9z M625.5,541L613,553.5h12.5V541z M593.5,553.5h9.3l33.3-33.3l5.2,5.3l2-21.8l-21.8,1.9l5.2,5.2L593.5,544
	V553.5z M720,720.1V398H0l0,322.1H720z M510.8,544.2v8.4H32.9v-8.4H510.8z M32.9,531.3v-8.4h477.9v8.4H32.9z M352.7,565.6v8.4H33
	v-8.4H352.7z M510.8,603.3v4.2H32.9v-4.2H510.8z M688.5,636.8v9.9H32.9v-9.9H688.5z M688.5,658.3v9.9H32.9v-9.9H688.5z M688.5,679.8
	v9.9H32.9v-9.9H688.5z M527.1,469.8h164.4V609H527L527.1,469.8L527.1,469.8z M510.8,510H32.9v-8.4h477.9V510L510.8,510z
	 M107.4,429.6h9.5v26.9c0,4.7,1.2,9.4,8.9,9.4c6.8,0,9-2.9,9-9.4v-26.9h9.5v26.9c0,11.7-6.9,17.4-18.5,17.4s-18.4-5.6-18.4-17.4
	V429.6L107.4,429.6z M67.1,429.6h35.5v8h-13v35.3h-9.5v-35.3h-13V429.6L67.1,429.6z M42.9,454c-6.4-1.7-12.9-4.2-12.9-12.3
	c0-8.8,8.3-13.1,16.2-13.1c9,0,17.3,4,17.3,14h-9.2c-0.3-5.2-4-6.6-8.6-6.6c-3,0-6.6,1.3-6.6,4.9c0,3.4,2,3.8,12.9,6.6
	c3.1,0.8,12.9,2.8,12.9,12.6c0,7.9-6.2,13.9-18,13.9c-9.6,0-18.5-4.7-18.4-15.4h9.2c0,5.7,4.5,8,9.6,8c3.4,0,8.4-1,8.4-5.4
	C55.7,456.5,49.2,455.7,42.9,454z M533.2,602.9h152.2V476H533.2V602.9L533.2,602.9z M578.8,484.9l29.6,34.1l8.2-8.2l-11-11l45.8-4
	l-4.1,45.6l-11-11l-8.2,8.2l34.3,29.7l-36.7,29.4v-16.3h-59.8l0-59.8h-16.3L578.8,484.9z M152.5,429.6h18.7
	c11.2,0,19.6,7.1,19.6,21.4c0,12.5-6.4,21.9-19.6,21.9h-18.7V429.6z M181.3,452c0-8.8-3-14.3-12.5-14.3H162v27.2h8.5
	C176,464.9,181.3,461.5,181.3,452z"/>
</svg>
