<?xml version="1.0" encoding="utf-8"?>
<!-- Generator: Adobe Illustrator 16.0.0, SVG Export Plug-In . SVG Version: 6.00 Build 0)  -->
<!DOCTYPE svg PUBLIC "-//W3C//DTD SVG 1.1//EN" "http://www.w3.org/Graphics/SVG/1.1/DTD/svg11.dtd">
<svg version="1.1" id="Layer_1" xmlns="http://www.w3.org/2000/svg" xmlns:xlink="http://www.w3.org/1999/xlink" x="0px" y="0px"
	 width="128px" height="128px" viewBox="0 0 128 128" enable-background="new 0 0 128 128" xml:space="preserve">
<path fill="#FFFFFF" d="M0,0v128h128V0H0z M95.07,109.088c-4.223,1.988-8.057,3.389-11.482,4.193
	c-3.431,0.797-7.139,1.199-11.12,1.199c-4.524,0-7.194-0.569-10.67-1.707c-3.475-1.146-6.442-2.783-8.894-4.885
	c-2.459-2.117-4.157-4.367-5.106-6.748c-0.95-2.382-1.422-5.84-1.422-10.365V56.07H32.93V42.059
	c3.887-1.262,8.396-3.072,11.159-5.427c2.78-2.364,5.002-5.19,6.679-8.5c1.682-3.3,2.836-7.51,3.467-12.612h14.074v22.89h22.881
	v17.664H68.309v25.375c0,5.741-0.074,9.051,0.534,10.678c0.604,1.619,2.118,3.3,3.769,4.271c2.193,1.312,4.691,1.971,7.511,1.971
	c5.011,0,9.995-1.629,14.948-4.885V109.088z"/>
</svg>
