<?xml version="1.0" encoding="utf-8"?>
<!-- Generator: Adobe Illustrator 16.0.0, SVG Export Plug-In . SVG Version: 6.00 Build 0)  -->
<!DOCTYPE svg PUBLIC "-//W3C//DTD SVG 1.1//EN" "http://www.w3.org/Graphics/SVG/1.1/DTD/svg11.dtd">
<svg version="1.1" id="Layer_1" xmlns="http://www.w3.org/2000/svg" xmlns:xlink="http://www.w3.org/1999/xlink" x="0px" y="0px"
	 width="128px" height="128px" viewBox="0 0 128 128" enable-background="new 0 0 128 128" xml:space="preserve">
<path fill="#FFFFFF" d="M0,0v128h128V0H0z M112.494,42.008c-5.418,30.518-35.688,56.361-44.791,62.263
	c-9.107,5.903-17.412-2.362-20.423-8.613c-3.45-7.129-13.784-45.773-16.491-48.974c-2.706-3.2-10.827,3.2-10.827,3.2l-3.939-5.164
	c0,0,16.491-19.691,29.039-22.153c13.305-2.612,13.285,20.429,16.485,33.22c3.096,12.373,5.175,19.451,7.877,19.451
	c2.706,0,7.876-6.898,13.535-17.477c5.667-10.589-0.245-19.94-11.321-13.29C76.068,17.891,117.908,11.499,112.494,42.008z"/>
</svg>
