<?xml version="1.0" encoding="utf-8"?>
<!-- Generator: Adobe Illustrator 22.1.0, SVG Export Plug-In . SVG Version: 6.00 Build 0)  -->
<svg version="1.1"
	 id="Layer_1" inkscape:version="0.91 r13725" sodipodi:docname="safari-mask.svg" xmlns:cc="http://creativecommons.org/ns#" xmlns:dc="http://purl.org/dc/elements/1.1/" xmlns:inkscape="http://www.inkscape.org/namespaces/inkscape" xmlns:rdf="http://www.w3.org/1999/02/22-rdf-syntax-ns#" xmlns:sodipodi="http://sodipodi.sourceforge.net/DTD/sodipodi-0.dtd" xmlns:svg="http://www.w3.org/2000/svg"
	 xmlns="http://www.w3.org/2000/svg" xmlns:xlink="http://www.w3.org/1999/xlink" x="0px" y="0px" viewBox="0 0 16 16"
	 style="enable-background:new 0 0 16 16;" xml:space="preserve">
<sodipodi:namedview  bordercolor="#666666" borderopacity="1" gridtolerance="10" guidetolerance="10" id="namedview5" inkscape:current-layer="Layer_1" inkscape:cx="2.7786821" inkscape:cy="9.0240923" inkscape:pageopacity="0" inkscape:pageshadow="2" inkscape:window-height="756" inkscape:window-maximized="0" inkscape:window-width="1177" inkscape:window-x="0" inkscape:window-y="0" inkscape:zoom="20.85965" objecttolerance="10" pagecolor="#ffffff" showgrid="false">
	</sodipodi:namedview>
<path d="M0,0v16h16V0H0z M13.2,3.9c0,0-0.6,0.1-1,0.2L12.1,13h-1.4L5.3,5.8l0.1,6C6,12,6.9,12.1,6.9,12.1s0,0.5-0.3,0.9
	c0,0-1.1-0.1-1.9-0.1C4,12.9,2.5,13,2.5,13c0-0.1,0-0.2,0-0.2c0-0.4,0.4-0.6,0.4-0.6l1-0.2L4,4.1L2.6,3.9c0-0.1,0-0.2,0-0.2
	C2.6,3.2,3,3,3,3h2.8l4.9,6.5l-0.1-5.5L9.3,3.9c0-0.1,0-0.2,0-0.2C9.3,3.2,9.7,3,9.7,3s0.8,0,1.8,0c0.9,0,2.1,0,2.1,0
	S13.5,3.5,13.2,3.9z"/>
</svg>
