<?xml version="1.0" encoding="utf-8"?>
<!-- Generator: Adobe Illustrator 16.0.0, SVG Export Plug-In . SVG Version: 6.00 Build 0)  -->
<!DOCTYPE svg PUBLIC "-//W3C//DTD SVG 1.1//EN" "http://www.w3.org/Graphics/SVG/1.1/DTD/svg11.dtd">
<svg version="1.1" id="Layer_1" xmlns="http://www.w3.org/2000/svg" xmlns:xlink="http://www.w3.org/1999/xlink" x="0px" y="0px"
	 width="86px" height="86px" viewBox="13.083 14 86 86" enable-background="new 13.083 14 86 86" xml:space="preserve">
<path fill="#FFFFFF" d="M56.642,14.334c-23.423-0.016-42.418,19.168-42.439,42.811C14.224,80.827,33.219,100.008,56.642,100
	c23.434,0.008,42.425-19.173,42.44-42.855C99.067,33.502,80.075,14.318,56.642,14.334z M56.642,90.132
	c-18.024,0-32.636-14.761-32.617-32.988c-0.02-18.188,14.593-32.948,32.617-32.941c18.032-0.007,32.646,14.753,32.666,32.942
	C89.288,75.371,74.672,90.132,56.642,90.132z"/>
<path fill="#FFFFFF" d="M52.24,72.293l9.593-0.044v-7.415c-0.021-2.014,0.916-3.917,3.428-5.559
	c2.518-1.655,9.534-4.998,9.545-13.808c-0.011-8.776-7.381-14.82-13.577-16.122c-6.189-1.263-12.9-0.419-17.651,4.819
	c-4.273,4.649-5.172,8.346-5.189,16.494h9.59v-1.899c-0.019-4.336,0.484-8.921,6.672-10.193c3.405-0.666,6.581,0.396,8.479,2.226
	c2.141,2.119,2.156,6.866-1.296,9.219l-5.375,3.661c-3.132,2.029-4.209,4.27-4.217,7.55L52.24,72.293L52.24,72.293z"/>
<polygon fill="#FFFFFF" points="52.196,85.87 52.196,76.049 61.878,76.049 61.878,85.87 "/>
</svg>
