<?xml version="1.0" encoding="utf-8"?>
<!-- Generator: Adobe Illustrator 18.0.0, SVG Export Plug-In . SVG Version: 6.00 Build 0)  -->
<!DOCTYPE svg PUBLIC "-//W3C//DTD SVG 1.1//EN" "http://www.w3.org/Graphics/SVG/1.1/DTD/svg11.dtd">
<svg version="1.1" id="Layer_1" xmlns="http://www.w3.org/2000/svg" xmlns:xlink="http://www.w3.org/1999/xlink" x="0px" y="0px"
	 viewBox="0 0 346.7 111" enable-background="new 0 0 346.7 111" xml:space="preserve">
<g>
	<polygon display="none" fill="#FFFFFF" points="36.3,73.3 106.3,111 106.3,0 53.1,40.6 0,0 0,111 	"/>
	<polygon display="none" fill="#FFFFFF" points="173.4,0 106.3,111 143.5,86 240.2,111 	"/>
	<path display="none" fill="#FFFFFF" d="M346.7,55.5C346.7,33.7,331,0,293.7,0c-22.9,0-53.4,0-53.4,0v40.6l27.7,12.9L240.2,111
		c0,0,30.5,0,53.4,0C331,111,346.7,77.4,346.7,55.5z"/>
	<path opacity="0.6" fill="#FFFFFF" d="M280.1,28.2l-12.1,25.2c0,0,62.5,29.1,70,32.6c2.5-4.1,4.4-8.4,5.8-12.7
		C338.6,69.6,280.1,28.2,280.1,28.2z"/>
	<path opacity="0.3" fill="#FFFFFF" d="M267.9,53.4L240.2,111c0,0,30.5,0,53.4,0c21.6,0,36-11.3,44.3-25
		C331.2,82.9,267.9,53.4,267.9,53.4z"/>
	<polygon opacity="0.6" fill="#FFFFFF" points="240.2,0 293.7,0 280.1,28.2 	"/>
	<polygon opacity="0.3" fill="#FFFFFF" points="280.1,28.2 267.9,53.4 240.2,40.6 240.2,0 	"/>
	<polygon opacity="0.3" fill="#FFFFFF" points="217.6,73.3 240.2,111 143.5,86 154.6,78.6 	"/>
	<polygon opacity="0.6" fill="#FFFFFF" points="201.7,47 217.6,73.3 154.6,78.6 	"/>
	<polygon opacity="0.3" fill="#FFFFFF" points="143.5,86 106.3,111 124.4,81.1 	"/>
	<polygon opacity="0.3" fill="#FFFFFF" points="106.3,81.1 106.3,111 36.3,73.3 61.5,47 	"/>
	<polygon opacity="0.6" fill="#FFFFFF" points="106.3,0 106.3,81.1 61.5,47 	"/>
	<polygon opacity="0.6" fill="#FFFFFF" points="61.5,47 36.3,73.3 0,53.8 0,0 53.2,40.6 	"/>
	<polygon opacity="0.3" fill="#FFFFFF" points="36.3,73.3 0,111 0,53.8 	"/>
	<polygon opacity="0.6" fill="#FFFFFF" points="154.6,78.6 143.5,86 124.4,81.1 	"/>
	<polygon fill="#FFFFFF" fill-opacity="0.9" points="173.4,0 124.4,81.1 154.6,78.6 201.7,47 	"/>
	<polyline fill="#FFFFFF" fill-opacity="0.9" points="53.2,40.6 61.5,47 106.3,0 53.1,40.6 	"/>
	<path fill="#FFFFFF" fill-opacity="0.9" d="M343.7,73.3c2-6.2,3-12.3,3-17.7C346.7,33.7,331,0,293.7,0l-13.6,28.2
		C280.1,28.2,338.6,69.6,343.7,73.3z"/>
</g>
</svg>
