<?xml version="1.0" encoding="utf-8"?>
<!-- Generator: Adobe Illustrator 19.0.0, SVG Export Plug-In . SVG Version: 6.00 Build 0)  -->
<svg version="1.1" xmlns="http://www.w3.org/2000/svg" xmlns:xlink="http://www.w3.org/1999/xlink" x="0px" y="0px"
	 viewBox="7.876 -226.137 658.869 211" enable-background="new 7.876 -226.137 658.869 211" xml:space="preserve">
<g id="bg">
</g>
<g id="original">
</g>
<g id="final">
	<g>
		<path fill="#4D4D4D" d="M565.907-226C522.311-226,464-226,464-226v105.363V-15c0,0,58.311,0,101.907,0
			c71.002,0,100.838-63.999,100.838-105.5S636.909-226,565.907-226L565.907-226z M605.156-203
			c10.229,5.32,19.214,12.912,26.708,22.632c15.396,19.97,20.881,43.95,20.881,59.748c0,15.798-5.484,39.787-20.881,59.757
			c-7.494,9.72-16.479,17.41-26.708,22.731C593.587-32.115,580.382-29,565.907-29h-78.307l88.019-91.5L487.601-212h78.307
			C580.382-212,593.587-209.017,605.156-203z M478-201.485l77.773,80.849L478-39.788V-201.485z"/>
		<path fill="#4D4D4D" d="M210-226.137l-101.001,77.049L8-226.137V-15h202V-226.137L210-226.137z M196-107v78H22v-78H196 M22-121
			v-76.843l86.999,66.365L196-197.843V-121H22z"/>
		<line fill="#4D4D4D" x1="22" y1="-121" x2="196" y2="-121"/>
		<polygon fill="#FFFFFF" points="22,-197.843 22,-121 196,-121 196,-197.843 108.999,-131.477 		"/>
		<path fill="#4D4D4D" d="M337.375-226L209.815-15h254.606L337.375-226L337.375-226z M345.702-29l47.021-77.936L439.649-29H345.702z
			 M337.352-198.968l47.204,78.434L329.352-29h-94.714L337.352-198.968z"/>
		<polygon fill="#FFFFFF" points="392.723,-106.936 345.702,-29 439.649,-29 		"/>
		<polygon fill="#FFFFFF" points="478,-201.485 555.773,-120.637 478,-39.788 		"/>
	</g>
</g>
</svg>
