<?xml version="1.0" encoding="utf-8"?>
<!-- Generator: Adobe Illustrator 18.0.0, SVG Export Plug-In . SVG Version: 6.00 Build 0)  -->
<!DOCTYPE svg PUBLIC "-//W3C//DTD SVG 1.1//EN" "http://www.w3.org/Graphics/SVG/1.1/DTD/svg11.dtd">
<svg version="1.1" id="Layer_1" xmlns="http://www.w3.org/2000/svg" xmlns:xlink="http://www.w3.org/1999/xlink" x="0px" y="0px"
	 viewBox="14.9 209.9 689.2 305.9" enable-background="new 14.9 209.9 689.2 305.9" xml:space="preserve">
<g>
	<g enable-background="new    ">
		<path d="M23.4,209.9h23.2l44.3,70.9h0.3v-70.9h21.7v105.7H89.7L45.4,245h-0.3v70.6H23.4V209.9z"/>
		<path d="M148.5,282.6c0.6,13.3,7.2,19.4,18.8,19.4c8.4,0,15.3-5.2,16.5-9.8h18.5c-5.8,17.9-18.5,25.8-35.9,25.8
			c-24,0-39.1-16.8-39.1-40.5c0-22.9,15.9-40.5,39.1-40.5c26.1,0,38.8,22,37.3,45.5h-55.3v0.1H148.5z M182.7,269.2
			c-2-10.7-6.7-16.2-16.8-16.2c-13.3,0-17.1,10.4-17.4,16.2H182.7z"/>
		<path d="M288.1,315.6h-20v-10.7h-0.6c-5.2,8.7-14.5,12.7-23.4,12.7c-22.3,0-28.1-12.7-28.1-31.6v-46.9h21.4v43.4
			c0,12.7,3.8,18.8,13.6,18.8c11.3,0,16.2-6.4,16.2-22v-40.2h21.1L288.1,315.6L288.1,315.6z"/>
		<path d="M321.6,282.6c0.6,13.3,7.2,19.4,18.8,19.4c8.4,0,15.3-5.2,16.5-9.8h18.5c-5.8,17.9-18.5,25.8-35.9,25.8
			c-24,0-39.1-16.5-39.1-40.2c0-22.9,15.9-40.5,39.1-40.5c26.1,0,38.8,22,37.3,45.5h-55.2V282.6z M355.8,269.2
			c-2-10.7-6.7-16.2-16.8-16.2c-13.3,0-17.1,10.4-17.4,16.2C321.4,269.2,355.8,269.2,355.8,269.2z"/>
	</g>
	<g enable-background="new    ">
		<path d="M23.4,337.3h57c19.1,0,31,13.3,31,29.2c0,12.4-4.9,21.7-16.8,26.6v0.3c11.3,2.9,14.8,14.2,15.3,24.9
			c0.6,6.7,0.3,19.1,4.3,25.2h-23c-2.9-6.7-2.6-16.8-3.8-25.5c-1.7-11-5.8-15.9-17.7-15.9H46.6v40.8H23.4V337.3z M46.6,385h25.8
			c10.4,0,15.9-4.3,15.9-15.1c0-10.1-5.5-14.8-15.9-14.8H46.9V385H46.6z"/>
		<path d="M145.6,409.9c0.6,13.3,7.2,19.4,18.8,19.4c8.4,0,15.3-5.2,16.5-9.8h18.5c-5.8,17.9-18.5,25.8-35.9,25.8
			c-24,0-39.1-16.8-39.1-40.5c0-22.9,15.9-40.5,39.1-40.5c26.1,0,38.8,22,37.3,45.5C200.9,409.9,145.6,409.9,145.6,409.9z
			 M179.8,396.6c-2-10.7-6.7-16.2-16.8-16.2c-13.3,0-17.1,10.4-17.4,16.2H179.8z"/>
		<path d="M229.6,418c0.3,9.3,7.8,13,16.2,13c6.1,0,13.9-2.3,13.9-9.8c0-6.4-8.7-8.7-23.7-11.9c-12.4-2.6-24.6-6.9-24.6-20.6
			c0-19.7,16.8-24.6,33.3-24.6c16.8,0,32.1,5.5,33.9,24.3h-20c-0.6-8.1-6.9-10.4-14.5-10.4c-4.6,0-11.6,0.9-11.6,7.2
			c0,7.5,11.9,8.7,23.7,11.3c12.2,2.9,24.3,7.2,24.3,21.4c0,20.3-17.4,26.6-35,26.6s-35-6.7-35.9-26.9
			C209.6,418,229.6,418,229.6,418z"/>
		<path d="M365.1,442.9h-20v-10.7h-0.6c-5.2,8.7-14.5,12.7-23.4,12.7c-22.3,0-28.1-12.7-28.1-31.6v-46.9h21.1v43.4
			c0,12.7,3.8,18.8,13.6,18.8c11.3,0,16.2-6.4,16.2-22v-40.2H365L365.1,442.9L365.1,442.9z"/>
		<path d="M381.6,366.5h20v10.4h0.3c5.5-7.8,13.6-12.4,23.4-12.4c9.6,0,18.2,3.5,22.3,12.7c4.3-6.7,12.4-12.7,23.2-12.7
			c16.2,0,28.1,7.5,28.1,27.5v51h-21.1v-43.4c0-10.1-0.9-18.8-13-18.8c-11.9,0-14.2,9.8-14.2,19.4V443h-21.1v-42.8
			c0-9,0.6-19.1-12.7-19.1c-4.1,0-14.2,2.6-14.2,17.7v44.3h-21.1L381.6,366.5L381.6,366.5z"/>
		<path d="M532.7,409.9c0.6,13.3,7.2,19.4,18.8,19.4c8.4,0,15.3-5.2,16.5-9.8h18.5c-5.8,17.9-18.5,25.8-35.9,25.8
			c-24,0-39.1-16.5-39.1-40.2c0-22.9,15.9-40.5,39.1-40.5c26.1,0,38.8,22,37.3,45.5C588,409.9,532.7,409.9,532.7,409.9z
			 M566.9,396.6c-2-10.7-6.7-16.2-16.8-16.2c-13.3,0-17.1,10.4-17.4,16.2H566.9z"/>
	</g>
	<g enable-background="new    ">
		<path d="M689.9,379h-82.5v-9.6h82.5V379z M668.2,400.4h-60.8v-9.6h60.8V400.4z M689.9,421.8h-82.5v-9.6h82.5V421.8z M668.2,442.9
			h-60.8v-9.6h60.8V442.9z"/>
	</g>
	<g enable-background="new    ">
		<path d="M40.5,505.5c-0.9,0.6-1.7,0.9-3.2,0.9c-2.3,0-3.8-1.2-3.8-4.1c-2.3,2.9-5.8,4.1-9.6,4.1c-4.9,0-9-2.3-9-7.5
			c0-6.1,4.6-7.5,9.3-8.4c4.9-0.9,9-0.6,9-4.1c0-3.8-3.2-4.3-6.1-4.3c-3.8,0-6.4,1.2-6.7,5.2h-4.3c0.3-6.7,5.5-9,11.3-9
			c4.9,0,10.1,1.2,10.1,7.5v13.9c0,2,0,2.9,1.4,2.9c0.3,0,0.9,0,1.4-0.3v3.2H40.5z M33.3,491.6c-1.7,1.2-4.9,1.2-8.1,1.7
			c-2.9,0.6-5.5,1.4-5.5,4.9c0,2.9,2.6,4.1,5.2,4.1c5.8,0,8.1-3.8,8.1-6.1v-4.6H33.3z"/>
		<path d="M61.7,497.1c0.3,4.1,3.5,5.2,7.2,5.2c2.9,0,6.4-0.6,6.4-4.1s-4.3-4.1-8.7-4.9c-4.3-0.9-8.7-2.3-8.7-7.5
			c0-5.5,5.5-7.5,10.1-7.5c6.1,0,10.7,1.7,11,8.4h-4.3c-0.3-3.5-3.5-4.6-6.4-4.6c-2.6,0-5.8,0.9-5.8,3.5c0,3.2,4.6,3.8,8.7,4.6
			c4.3,0.9,8.7,2.3,8.7,7.5c0,6.4-6.1,8.4-11.6,8.4c-6.1,0-11.3-2.3-11.3-9.3L61.7,497.1L61.7,497.1z"/>
		<path d="M89.7,473.9h-4.3v-5.5h4.3V473.9z M85.4,478.6h4.3v26.9h-4.3V478.6z"/>
		<path d="M96.7,478.6h4.1v4.1l0,0c2-2.9,4.9-4.6,8.7-4.6c3.2,0,6.4,1.2,7.5,4.6c1.7-2.9,4.9-4.6,8.4-4.6c5.5,0,9,2.3,9,7.8v19.7
			H130v-17.7c0-3.5-0.9-6.1-5.2-6.1s-6.9,2.6-6.9,6.9v16.8h-4.3v-17.7c0-3.5-1.2-6.1-4.9-6.1c-5.2,0-7.2,4.9-7.2,6.9v16.8H97
			L96.7,478.6L96.7,478.6z"/>
		<path d="M141.3,478.6h4.3v3.8l0,0c1.4-2.9,4.9-4.3,8.7-4.3c8.4,0,12.4,6.7,12.4,14.2s-4.1,13.9-12.2,13.9c-2.9,0-6.7-1.2-8.7-4.3
			l0,0v13.9h-4.3v-37.1h-0.2V478.6z M153.7,482c-6.1,0-8.1,5.2-8.1,10.1c0,5.2,2.3,10.1,8.4,10.1c6.1,0,8.1-5.2,8.1-10.4
			C162.1,486.9,159.5,482,153.7,482z"/>
		<path d="M172.3,468.4h4.3v37.3h-4.3V468.4z"/>
		<path d="M206.7,497.1c-1.2,6.1-5.5,9.3-11.6,9.3c-8.7,0-12.7-6.1-13-14.2c0-8.1,5.2-13.9,12.7-13.9c9.6,0,12.4,9,12.2,15.3h-20.3
			c-0.3,4.6,2.6,9,8.4,9c3.8,0,6.1-1.7,6.9-5.2L206.7,497.1L206.7,497.1z M202.4,489.6c-0.3-4.3-3.5-7.5-7.8-7.5
			c-4.6,0-7.5,3.5-7.8,7.5H202.4z"/>
		<path d="M235.7,486.4l-12.2-17.9h6.1l9.3,14.5l9.6-14.5h5.5l-12.2,17.9l13,19.1h-6.1l-10.1-15.3l-10.4,15.3h-5.5L235.7,486.4z"/>
		<path d="M258.8,468.4h6.7l11.9,31.3l11.9-31.3h6.7v37.3h-4.6v-31.3l0,0l-11.6,31H275l-11.6-31l0,0v31h-4.6V468.4L258.8,468.4z"/>
		<path d="M304,468.4h4.9v33h19.7v4.1H304V468.4L304,468.4z"/>
		<path d="M346.8,468.4h4.3v13.9l0,0c1.4-2.9,4.9-4.3,8.7-4.3c8.4,0,12.4,6.7,12.4,14.2s-4.1,13.9-12.2,13.9c-2.9,0-6.7-1.2-8.7-4.3
			l0,0v3.5H347C346.8,505.5,346.8,468.4,346.8,468.4z M359.6,482c-6.1,0-8.1,5.2-8.1,10.1c0,5.2,2.3,10.1,8.4,10.1s8.1-5.2,8.1-10.4
			C367.7,486.9,365.1,482,359.6,482z"/>
		<path d="M401.5,505.5c-0.9,0.6-1.7,0.9-3.2,0.9c-2.3,0-3.8-1.2-3.8-4.1c-2.3,2.9-5.8,4.1-9.6,4.1c-4.9,0-9-2.3-9-7.5
			c0-6.1,4.6-7.5,9.3-8.4c4.9-0.9,9-0.6,9-4.1c0-3.8-3.2-4.3-6.1-4.3c-3.8,0-6.4,1.2-6.7,5.2h-4.3c0.3-6.7,5.5-9,11.3-9
			c4.9,0,10.1,1.2,10.1,7.5v13.9c0,2,0,2.9,1.4,2.9c0.3,0,0.9,0,1.4-0.3L401.5,505.5L401.5,505.5z M394.3,491.6
			c-1.7,1.2-4.9,1.2-8.1,1.7c-2.9,0.6-5.5,1.4-5.5,4.9c0,2.9,2.6,4.1,5.2,4.1c5.8,0,8.1-3.8,8.1-6.1L394.3,491.6L394.3,491.6z"/>
		<path d="M408.5,497.1c0.3,4.1,3.5,5.2,7.2,5.2c2.9,0,6.7-0.6,6.7-4.1s-4.3-4.1-8.7-4.9c-4.3-0.9-8.7-2.3-8.7-7.5
			c0-5.5,5.5-7.5,10.1-7.5c6.1,0,10.7,1.7,11,8.4h-4.3c-0.3-3.5-3.5-4.6-6.4-4.6c-2.6,0-5.8,0.9-5.8,3.5c0,3.2,4.6,3.8,8.7,4.6
			c4.3,0.9,8.7,2.3,8.7,7.5c0,6.4-6.1,8.4-11.6,8.4c-6.1,0-11.3-2.3-11.3-9.3L408.5,497.1L408.5,497.1z"/>
		<path d="M454.8,497.1c-1.2,6.1-5.5,9.3-11.6,9.3c-8.7,0-12.7-6.1-13-14.2c0-8.1,5.2-13.9,12.7-13.9c9.6,0,12.4,9,12.2,15.3h-20.3
			c-0.3,4.6,2.6,9,8.4,9c3.8,0,6.1-1.7,6.9-5.2L454.8,497.1L454.8,497.1z M450.5,489.6c-0.3-4.3-3.5-7.5-7.8-7.5
			c-4.6,0-7.5,3.5-7.8,7.5H450.5z"/>
		<path d="M483.8,505.5h-4.3v-3.8l0,0c-1.4,2.9-4.9,4.3-8.7,4.3c-8.4,0-12.4-6.7-12.4-14.2s4.1-13.9,12.2-13.9
			c2.9,0,6.7,1.2,8.7,4.3l0,0v-13.9h4.3v37.1h0.2V505.5z M471.3,502.3c6.1,0,8.1-5.2,8.1-10.1c0-5.2-2.3-10.1-8.4-10.1
			s-8.1,5.2-8.1,10.4C462.9,497.4,465.5,502.3,471.3,502.3z"/>
		<path d="M511.3,478.6h5.5v4.1h-5.5v16.8c0,2,0.6,2.3,3.5,2.3h2v4.1h-3.5c-4.6,0-6.4-0.9-6.4-5.8V483h-4.6v-4.1h4.6v-8.1h4.3v7.8
			H511.3z"/>
		<path d="M544.6,497.1c-1.2,6.1-5.5,9.3-11.6,9.3c-8.7,0-12.7-6.1-13-14.2c0-8.1,5.2-13.9,12.7-13.9c9.6,0,12.4,9,12.2,15.3h-20.3
			c-0.3,4.6,2.6,9,8.4,9c3.8,0,6.1-1.7,6.9-5.2L544.6,497.1L544.6,497.1z M540.2,489.6c-0.3-4.3-3.5-7.5-7.8-7.5
			c-4.6,0-7.5,3.5-7.8,7.5H540.2z"/>
		<path d="M549.5,478.6h4.1v4.1l0,0c2-2.9,4.9-4.6,8.7-4.6c3.2,0,6.4,1.2,7.5,4.6c1.7-2.9,4.9-4.6,8.4-4.6c5.5,0,9,2.3,9,7.8v19.7
			h-4.3v-17.7c0-3.5-0.9-6.1-5.2-6.1s-6.9,2.6-6.9,6.9v16.8h-4.3v-17.7c0-3.5-1.2-6.1-4.9-6.1c-5.2,0-7.2,4.9-7.2,6.9v16.8h-4.3
			L549.5,478.6L549.5,478.6z"/>
		<path d="M594.1,478.6h4.3v3.8l0,0c1.4-2.9,4.9-4.3,8.7-4.3c8.4,0,12.4,6.7,12.4,14.2s-4.1,13.9-12.2,13.9c-2.9,0-6.7-1.2-8.7-4.3
			l0,0v13.9h-4.3v-37.1h-0.2V478.6z M606.5,482c-6.1,0-8.1,5.2-8.1,10.1c0,5.2,2.3,10.1,8.4,10.1c6.1,0,8.1-5.2,8.1-10.4
			C614.9,486.9,612.3,482,606.5,482z"/>
		<path d="M625,468.4h4.3v37.3H625V468.4z"/>
		<path d="M660.4,505.5c-0.9,0.6-1.7,0.9-3.2,0.9c-2.3,0-3.8-1.2-3.8-4.1c-2.3,2.9-5.8,4.1-9.6,4.1c-4.9,0-9-2.3-9-7.5
			c0-6.1,4.6-7.5,9.3-8.4c4.9-0.9,9-0.6,9-4.1c0-3.8-3.2-4.3-6.1-4.3c-3.8,0-6.4,1.2-6.7,5.2H636c0.3-6.7,5.5-9,11.3-9
			c4.9,0,10.1,1.2,10.1,7.5v13.9c0,2,0,2.9,1.4,2.9c0.3,0,0.9,0,1.4-0.3L660.4,505.5L660.4,505.5z M653.1,491.6
			c-1.7,1.2-4.9,1.2-8.1,1.7c-2.9,0.6-5.5,1.4-5.5,4.9c0,2.9,2.6,4.1,5.2,4.1c5.8,0,8.1-3.8,8.1-6.1L653.1,491.6L653.1,491.6z"/>
		<path d="M670.5,478.6h5.5v4.1h-5.5v16.8c0,2,0.6,2.3,3.5,2.3h2v4.1h-3.5c-4.6,0-6.4-0.9-6.4-5.8V483h-4.6v-4.1h4.6v-8.1h4.3v7.8
			H670.5z"/>
		<path d="M703.8,497.1c-1.2,6.1-5.5,9.3-11.6,9.3c-8.7,0-12.7-6.1-13-14.2c0-8.1,5.2-13.9,12.7-13.9c9.6,0,12.4,9,12.2,15.3h-20.3
			c-0.3,4.6,2.6,9,8.4,9c3.8,0,6.1-1.7,6.9-5.2L703.8,497.1L703.8,497.1z M699.4,489.6c-0.3-4.3-3.5-7.5-7.8-7.5
			c-4.6,0-7.5,3.5-7.8,7.5H699.4z"/>
	</g>
</g>
</svg>
