<?xml version="1.0" encoding="utf-8"?>
<!-- Generator: Adobe Illustrator 18.0.0, SVG Export Plug-In . SVG Version: 6.00 Build 0)  -->
<!DOCTYPE svg PUBLIC "-//W3C//DTD SVG 1.1//EN" "http://www.w3.org/Graphics/SVG/1.1/DTD/svg11.dtd">
<svg version="1.1" id="Layer_1" xmlns="http://www.w3.org/2000/svg" xmlns:xlink="http://www.w3.org/1999/xlink" x="0px" y="0px"
	 viewBox="6.8 271.6 698.3 176.9" enable-background="new 6.8 271.6 698.3 176.9" xml:space="preserve">
<g>
	<g enable-background="new    ">
		<path d="M14.9,274.1h22.5l42.8,69h0.3v-69h21.1V377H79.2l-42.8-69h-0.3v69H14.9V274.1L14.9,274.1z"/>
		<path d="M136.7,344.8c0.6,13,7,18.9,18.3,18.9c8.2,0,14.9-5.1,16.1-9.6h18c-5.6,17.5-18,25.1-34.9,25.1c-23.4,0-38-16.1-38-39.2
			c0-22.3,15.5-39.5,38-39.5c25.4,0,37.8,21.4,36.4,44.2C190.5,344.8,136.7,344.8,136.7,344.8z M169.9,331.5
			c-2-10.4-6.5-15.8-16.3-15.8c-13,0-16.6,10.1-16.9,15.8H169.9z"/>
		<path d="M272.5,376.9h-19.4v-10.4h-0.6c-5.1,8.5-14.1,12.4-22.8,12.4c-21.7,0-27.3-12.4-27.3-30.7v-45.7H223v42.3
			c0,12.4,3.7,18.3,13.2,18.3c11,0,15.8-6.2,15.8-21.4v-39.2h20.6v74.4H272.5z"/>
		<path d="M304.9,344.8c0.6,13,7,18.9,18.3,18.9c8.2,0,14.9-5.1,16.1-9.6h18c-5.6,17.5-18,25.1-34.9,25.1c-23.4,0-38-16.1-38-39.2
			c0-22.3,15.5-39.5,38-39.5c25.4,0,37.8,21.4,36.4,44.2C358.7,344.8,304.9,344.8,304.9,344.8z M338.4,331.5
			c-2-10.4-6.5-15.8-16.3-15.8c-13,0-16.6,10.1-16.9,15.8H338.4z"/>
		<path d="M447.5,365.4c-7.9,10.1-18.3,14.1-28.2,14.1c-31.8,0-50.7-23.7-50.7-53.5c0-30.7,18.9-54.4,50.7-54.4
			c21.1,0,40.9,13,43.4,36.4H441c-2.5-11.3-11-17.2-21.7-17.2c-20.3,0-27.9,17.2-27.9,35.2c0,17.2,7.6,34.4,27.9,34.4
			c14.7,0,23.1-7.9,24.5-22.3H421v-16.9h43.4V377H450L447.5,365.4z"/>
		<path d="M479.6,325.3c1.1-19.2,18.3-25.1,34.9-25.1c14.9,0,32.7,3.4,32.7,21.1v38.9c0,6.8,0.8,13.5,2.5,16.6h-20.9
			c-0.8-2.3-1.4-4.8-1.4-7.3c-6.5,6.8-16.1,9.3-25.1,9.3c-14.1,0-25.4-7-25.4-22.3c0-16.9,12.7-20.9,25.4-22.5
			c12.7-2,24.2-1.4,24.2-9.9c0-8.7-6.2-10.1-13.2-10.1c-7.9,0-13,3.1-13.5,11.3H479.6L479.6,325.3z M527,340.6
			c-3.4,3.1-10.7,3.1-16.9,4.2c-6.5,1.4-12.1,3.4-12.1,11s5.9,9.6,12.7,9.6c16.1,0,16.6-12.7,16.6-17.2v-7.6H527z"/>
		<path d="M563.9,274.1h20.6V377h-20.6V274.1z"/>
	</g>
	<g enable-background="new    ">
		<path d="M625.6,323.9H607v-18.6h18.6V323.9z M625.6,350.7H607v-18.9h18.6V350.7z M625.6,376.9H607v-18.6h18.6V376.9z M652.4,323.9
			h-18.6v-18.6h18.6V323.9z M652.4,350.7h-18.6v-18.9h18.6V350.7z M652.4,376.9h-18.6v-18.6h18.6V376.9z M678.9,323.9h-18.6v-18.6
			h18.6V323.9z M678.9,350.4h-18.6v-18.9h18.6V350.4z M678.9,376.9h-18.6v-18.6h18.6V376.9z M705.1,323.9h-18.6v-18.6h18.6V323.9z
			 M705.1,350.4h-18.6v-18.9h18.6V350.4z M705.1,376.9h-18.6V358h18.6V376.9z"/>
	</g>
	<g enable-background="new    ">
		<path d="M31.6,437.8c-0.8,0.6-1.7,0.8-3.1,0.8c-2.3,0-3.7-1.1-3.7-3.9c-2.3,2.8-5.6,3.9-9.3,3.9c-4.8,0-8.7-2.3-8.7-7.3
			c0-5.9,4.5-7.3,9-8.2c4.8-1.1,8.7-0.6,8.7-3.9c0-3.7-3.1-4.2-5.9-4.2c-3.7,0-6.2,1.1-6.5,5.1H7.9c0.3-6.5,5.4-8.7,11-8.7
			c4.8,0,9.9,1.1,9.9,7.3v13.5c0,2,0,2.8,1.4,2.8c0.3,0,0.8,0,1.4-0.3L31.6,437.8L31.6,437.8z M24.5,424.3c-1.7,1.1-4.8,1.1-7.9,1.7
			c-2.8,0.6-5.4,1.7-5.4,4.8c0,2.8,2.5,3.9,5.1,3.9c5.6,0,7.9-3.7,7.9-5.9v-4.5H24.5z"/>
		<path d="M52.1,429.6c0.3,3.9,3.4,5.1,7,5.1c2.8,0,6.2-0.6,6.2-3.9c0-3.4-4.2-3.9-8.5-4.8s-8.5-2.3-8.5-7.3c0-5.4,5.4-7.3,9.9-7.3
			c5.9,0,10.4,1.7,10.7,8.2h-4.2c-0.3-3.4-3.4-4.5-6.2-4.5c-2.5,0-5.6,0.8-5.6,3.4c0,3.1,4.5,3.7,8.5,4.5c4.2,0.8,8.5,2.3,8.5,7.3
			c0,6.2-5.9,8.2-11.3,8.2c-5.9,0-11-2.3-11-9C47.9,429.6,52.1,429.6,52.1,429.6z"/>
		<path d="M79.5,406.8h-4.2v-5.4h4.2V406.8z M75.2,411.6h4.2v26.2h-4.2V411.6z"/>
		<path d="M86.2,411.6h3.9v3.9l0,0c2-2.8,4.8-4.5,8.5-4.5c3.1,0,6.2,1.1,7.3,4.5c1.7-2.8,4.8-4.5,8.2-4.5c5.4,0,8.7,2.3,8.7,7.6
			v19.2h-4.2v-17.2c0-3.4-0.8-5.9-5.1-5.9s-6.8,2.5-6.8,6.8v16.3h-4.2v-17.2c0-3.4-1.1-5.9-4.8-5.9c-5.1,0-7,4.8-7,6.8v16.3h-4.2
			L86.2,411.6L86.2,411.6z"/>
		<path d="M129.6,411.6h4.2v3.7l0,0c1.4-2.8,4.8-4.2,8.5-4.2c8.2,0,12.1,6.5,12.1,13.8s-3.9,13.5-11.8,13.5c-2.8,0-6.5-1.1-8.5-4.2
			l0,0v13.5h-4.5V411.6z M141.7,415c-5.9,0-7.9,5.1-7.9,9.9c0,5.1,2.3,9.9,8.2,9.9s7.9-5.1,7.9-10.1
			C149.9,419.5,147.4,415,141.7,415z"/>
		<path d="M159.8,401.7h4.2v36.4h-4.2V401.7z"/>
		<path d="M193,429.6c-1.1,5.9-5.4,9-11.3,9c-8.5,0-12.4-5.9-12.7-13.8c0-7.9,5.1-13.5,12.4-13.5c9.3,0,12.1,8.7,11.8,14.9h-19.7
			c-0.3,4.5,2.5,8.7,8.2,8.7c3.7,0,5.9-1.7,6.8-5.1L193,429.6L193,429.6z M189.1,422.3c-0.3-4.2-3.4-7.3-7.6-7.3
			c-4.5,0-7.3,3.4-7.6,7.3H189.1z"/>
		<path d="M212.2,411.6h3.9v4.2l0,0c1.7-3.4,4.8-4.8,8.5-4.8c6.8,0,9,3.9,9,9.6v17.2h-4.2V420c0-3.1-2-5.4-5.4-5.4
			c-5.4,0-7.9,3.4-7.9,8.2v14.9h-4.2L212.2,411.6L212.2,411.6z"/>
		<path d="M251.6,411c8.5,0,12.7,5.9,12.7,13.8c0,7.6-4.5,13.8-12.7,13.8c-8.5,0-12.7-5.9-12.7-13.8C239,416.9,243.2,411,251.6,411z
			 M251.6,434.7c4.5,0,8.2-3.7,8.2-9.9c0-6.5-3.7-9.9-8.2-9.9c-4.5,0-8.2,3.7-8.2,9.9C243.5,431,247.1,434.7,251.6,434.7z"/>
		<path d="M268.8,421.7h14.7v3.9h-14.7V421.7z"/>
		<path d="M312.5,437.8h-4.2v-3.7l0,0c-1.4,2.8-4.8,4.2-8.5,4.2c-8.2,0-12.1-6.5-12.1-13.8s3.9-13.5,11.8-13.5
			c2.8,0,6.5,1.1,8.5,4.2l0,0v-13.5h4.2v36.1L312.5,437.8L312.5,437.8z M300.4,434.7c5.9,0,7.9-5.1,7.9-9.9c0-5.1-2.3-9.9-8.2-9.9
			c-5.9,0-7.9,5.1-7.9,10.1C292.2,429.9,294.8,434.7,300.4,434.7z"/>
		<path d="M342.4,437.8c-0.8,0.6-1.7,0.8-3.1,0.8c-2.3,0-3.7-1.1-3.7-3.9c-2.3,2.8-5.6,3.9-9.3,3.9c-4.8,0-8.7-2.3-8.7-7.3
			c0-5.9,4.5-7.3,9-8.2c4.8-0.8,8.7-0.6,8.7-3.9c0-3.7-3.1-4.2-5.9-4.2c-3.7,0-6.2,1.1-6.5,5.1h-4.2c0.3-6.5,5.4-8.7,11-8.7
			c4.8,0,9.9,1.1,9.9,7.3v13.5c0,2,0,2.8,1.4,2.8c0.3,0,0.8,0,1.4-0.3L342.4,437.8L342.4,437.8z M335.3,424.3
			c-1.7,1.1-4.8,1.1-7.9,1.7c-2.8,0.6-5.4,1.4-5.4,4.8c0,2.8,2.5,3.9,5.1,3.9c5.6,0,7.9-3.7,7.9-5.9v-4.5H335.3z"/>
		<path d="M352.5,411.6h5.4v3.9h-5.4v16.3c0,2,0.6,2.3,3.4,2.3h2v3.9h-3.4c-4.5,0-6.2-0.8-6.2-5.6v-16.6h-4.5v-3.9h4.5V404h4.2
			V411.6L352.5,411.6z"/>
		<path d="M385.8,437.8c-0.8,0.6-1.7,0.8-3.1,0.8c-2.3,0-3.7-1.1-3.7-3.9c-2.3,2.8-5.6,3.9-9.3,3.9c-4.8,0-8.7-2.3-8.7-7.3
			c0-5.9,4.5-7.3,9-8.2c4.8-0.8,8.7-0.6,8.7-3.9c0-3.7-3.1-4.2-5.9-4.2c-3.7,0-6.5,1.1-6.5,5.1h-4.2c0.3-6.5,5.4-8.7,11-8.7
			c4.8,0,9.9,1.1,9.9,7.3v13.5c0,2,0,2.8,1.4,2.8c0.3,0,0.8,0,1.4-0.3L385.8,437.8L385.8,437.8z M378.7,424.3
			c-1.7,1.1-4.8,1.1-7.9,1.7c-2.8,0.6-5.4,1.4-5.4,4.8c0,2.8,2.5,3.9,5.1,3.9c5.6,0,7.9-3.7,7.9-5.9L378.7,424.3L378.7,424.3z"/>
		<path d="M389.7,401.7h4.2v13.5l0,0c1.4-2.8,4.8-4.2,8.5-4.2c8.2,0,12.1,6.5,12.1,13.8s-3.9,13.5-11.8,13.5c-2.8,0-6.5-1.1-8.5-4.2
			l0,0v3.4H390v-35.8L389.7,401.7L389.7,401.7z M402.1,415c-5.9,0-7.9,5.1-7.9,9.9c0,5.1,2.3,9.9,8.2,9.9c5.9,0,7.9-5.1,7.9-10.1
			C410,419.5,407.5,415,402.1,415z"/>
		<path d="M443,437.8c-0.8,0.6-1.7,0.8-3.1,0.8c-2.3,0-3.7-1.1-3.7-3.9c-2.3,2.8-5.6,3.9-9.3,3.9c-4.8,0-8.7-2.3-8.7-7.3
			c0-5.9,4.5-7.3,9-8.2c4.8-0.8,8.7-0.6,8.7-3.9c0-3.7-3.1-4.2-5.9-4.2c-3.7,0-6.5,1.1-6.5,5.1h-4.2c0.3-6.5,5.4-8.7,11-8.7
			c4.8,0,9.9,1.1,9.9,7.3v13.5c0,2,0,2.8,1.4,2.8c0.3,0,0.8,0,1.4-0.3L443,437.8L443,437.8z M435.9,424.3c-1.7,1.1-4.8,1.1-7.9,1.7
			c-2.8,0.6-5.4,1.4-5.4,4.8c0,2.8,2.5,3.9,5.1,3.9c5.6,0,7.9-3.7,7.9-5.9L435.9,424.3L435.9,424.3z"/>
		<path d="M449.8,429.6c0.3,3.9,3.4,5.1,7,5.1c2.8,0,6.2-0.6,6.2-3.9c0-3.4-4.2-3.9-8.5-4.8s-8.5-2.3-8.5-7.3c0-5.4,5.4-7.3,9.9-7.3
			c5.9,0,10.4,1.7,10.7,8.2h-4.5c-0.3-3.4-3.4-4.5-6.2-4.5c-2.5,0-5.6,0.8-5.6,3.4c0,3.1,4.5,3.7,8.5,4.5c4.2,0.8,8.5,2.3,8.5,7.3
			c0,6.2-5.9,8.2-11.3,8.2c-5.9,0-11-2.3-11-9C445.2,429.6,449.8,429.6,449.8,429.6z"/>
		<path d="M494.8,429.6c-1.1,5.9-5.4,9-11.3,9c-8.5,0-12.4-5.9-12.7-13.8c0-7.9,5.1-13.5,12.4-13.5c9.3,0,12.1,8.7,11.8,14.9h-19.7
			c-0.3,4.5,2.5,8.7,8.2,8.7c3.7,0,5.9-1.7,6.8-5.1L494.8,429.6L494.8,429.6z M490.6,422.3c-0.3-4.2-3.4-7.3-7.6-7.3
			c-4.5,0-7.3,3.4-7.6,7.3H490.6z"/>
		<path d="M536.3,435.5c0,8.5-3.9,13-12.1,13c-4.8,0-10.7-2-11-7.6h4.2c0.3,3.1,3.9,4.2,6.8,4.2c5.6,0,7.9-3.9,7.9-9.9v-2l0,0
			c-1.4,3.1-4.8,4.8-8.2,4.8c-7.9,0-11.8-6.2-11.8-13.2c0-6.2,3.1-13.8,12.1-13.8c3.4,0,6.2,1.4,7.9,4.2l0,0v-3.7h3.9v24H536.3z
			 M532,424.3c0-4.5-2-9.3-7.3-9.3c-5.6,0-7.9,4.5-7.9,9.6c0,4.8,1.7,9.9,7.3,9.9C530.1,434.4,532,429,532,424.3z"/>
		<path d="M566.1,437.8c-0.8,0.6-1.7,0.8-3.1,0.8c-2.3,0-3.7-1.1-3.7-3.9c-2.3,2.8-5.6,3.9-9.3,3.9c-4.8,0-8.7-2.3-8.7-7.3
			c0-5.9,4.5-7.3,9-8.2c4.8-0.8,8.7-0.6,8.7-3.9c0-3.7-3.1-4.2-5.9-4.2c-3.7,0-6.2,1.1-6.5,5.1h-4.2c0.3-6.5,5.4-8.7,11-8.7
			c4.8,0,9.9,1.1,9.9,7.3v13.5c0,2,0,2.8,1.4,2.8c0.3,0,0.8,0,1.4-0.3L566.1,437.8L566.1,437.8z M559.1,424.3
			c-1.7,1.1-4.8,1.1-7.9,1.7c-2.8,0.6-5.4,1.4-5.4,4.8c0,2.8,2.5,3.9,5.1,3.9c5.6,0,7.9-3.7,7.9-5.9L559.1,424.3L559.1,424.3z"/>
		<path d="M570.4,401.7h4.2v36.4h-4.2V401.7z"/>
		<path d="M581.6,401.7h4.2v36.4h-4.2V401.7z"/>
		<path d="M614.9,429.6c-1.1,5.9-5.4,9-11.3,9c-8.5,0-12.4-5.9-12.7-13.8c0-7.9,5.1-13.5,12.4-13.5c9.3,0,12.1,8.7,11.8,14.9h-19.7
			c-0.3,4.5,2.5,8.7,8.2,8.7c3.7,0,5.9-1.7,6.8-5.1L614.9,429.6L614.9,429.6z M610.7,422.3c-0.3-4.2-3.4-7.3-7.6-7.3
			c-4.5,0-7.3,3.4-7.6,7.3H610.7z"/>
		<path d="M619.7,411.6h3.9v5.6l0,0c2-4.2,5.1-6.2,9.6-6.2v4.5c-7,0-9.6,3.9-9.6,10.7v11.6h-4.2v-26.2H619.7z"/>
		<path d="M647,441.4c-2,5.1-3.7,7-7.6,7c-1.1,0-2,0-3.1-0.6V444c0.8,0.3,1.7,0.6,2.5,0.6c1.7,0,2.8-0.8,3.7-2.3l1.7-4.5l-10.4-26.2
			h4.8l7.6,21.4l0,0l7.3-21.4h4.5L647,441.4z"/>
	</g>
</g>
</svg>
